<svg xmlns="http://www.w3.org/2000/svg" viewBox="0 0 1400.6 329.3"><g id="Layer_2" data-name="Layer 2"><g id="レイヤー_1" data-name="レイヤー 1"><path d="M0,52.45C0,30.11,21.61,8.25,32.54,8.25c3.4,0,5.83,2.19,5.83,5.35,0,2.91-2.18,4.61-4.86,6.8-4.12,2.92-10.2,8.74-10.2,14.56,0,3.65,4.13,5.35,7.53,7,4.86,2.43,9.72,5.35,9.72,13.35,0,9.48-9,17-20.89,17C6.32,72.37,0,65.56,0,52.45Zm49.54,0c0-22.34,21.61-44.2,32.54-44.2,3.4,0,5.83,2.19,5.83,5.35,0,2.91-2.19,4.61-4.86,6.8-4.13,2.92-10.2,8.74-10.2,14.56,0,3.65,4.13,5.35,7.53,7,4.86,2.43,9.71,5.35,9.71,13.35,0,9.48-9,17-20.88,17C56.1,72.37,49.54,65.56,49.54,52.45Z"/><path d="M266.93,138.65c0,4.37-1.7,8.26-6.8,18.46l-10.44,22.34c-3.15,6.8-6.32,10.44-10.93,10.44-6.56,0-7.28-5.34-16.27-5.34H142.12c-10.93,0-18.94.73-23.56.73-5.83,0-7.77-2.67-7.77-6.06,0-9.72,15.54-4.14,15.54-20.89v-120c0-16.75-15.54-11.17-15.54-20.89,0-3.39,1.94-6.07,7.77-6.07,4.37,0,12.39.72,23.56.72h70.66c8.5,0,9.23-5.33,15.05-5.33,4.86,0,7.77,3.15,11.91,12.15L249,38.61c4.61,9.23,6.32,13.35,6.32,17.49s-2.92,6.31-5.83,6.31c-3.4,0-5.59-2.19-9.23-5.82-16.76-18-26.47-28.67-46.63-28.67h-18c-15.05,0-17.23,3.41-17.23,11.9V83.3c0,4.11,1.45,5.82,7,5.82h19.42c15.06,0,14.33-18,23.31-18,3.65,0,6.32,2.18,6.32,8s-.73,11.66-.73,17.74c0,6.3.73,12.38.73,18,0,5.82-2.67,8-6.32,8-9,0-8.25-18-23.31-18H165.43c-5.59,0-7,1.69-7,5.82v46.15c0,8.74,2.43,11.89,17.23,11.89h27.2c20.89,0,31.81-11.66,49.06-30.35,3.4-3.89,5.58-6.07,9-6.07A6.21,6.21,0,0,1,266.93,138.65Z"/><path d="M408.28,171.44c0,5.59-10.19,15.05-25.49,15.05-10.44,0-19.67-5.83-24.29-17.48-9.22,10-25,18.21-44.43,18.21-26,0-42.49-15.05-42.49-36.67s18.45-38.84,50.26-38.84a98.75,98.75,0,0,1,28.41,4.12l-.49-2.92c-3.4-23.79-12.86-31.8-27.92-31.8-10.69,0-20.16,5.09-28.17,11.65-3.16,1.95-5.58,3.16-7.77,3.16a5.7,5.7,0,0,1-5.58-5.84c0-3.39,2.91-6.78,5.82-10,8.75-10.43,26-18.94,45.41-18.94,30.84,0,42.49,18.46,46.14,43.72l5.58,40.29c2.43,17.25,8,19.44,20.89,21.87C406.83,167.54,408.28,169,408.28,171.44Zm-52.93-16.75-3.16-24.53a61.35,61.35,0,0,0-22.09-3.88c-17.73,0-27.93,7.77-27.93,21.37,0,13.11,9.47,21.85,23.31,21.85C337.62,169.5,349.28,162.45,355.35,154.69Z"/><path d="M517.82,75c0,5.34-2.19,12.86-6.32,24.27-1.46,4.63-3.64,7.29-7.52,7.29-3.65,0-5.34-3.15-7.29-7-3.64-8-7.28-12.39-13.11-12.39-10.44,0-27.93,15.78-27.93,47.59v22.59c0,18.69,18,11.89,18,22.09,0,2.67-1.94,5.83-6.8,5.83-6.07,0-14.08-.73-25.74-.73-10.44,0-17,.73-22.58.73-4.86,0-6.8-2.91-6.8-5.83,0-9.46,14.82-3.4,14.82-22.09V102c0-15.3-16.76-7.77-16.76-18,0-4.37,5.1-7.54,20.16-14.32,14.08-6.56,17-7.29,19.18-7.29,4.85,0,6.55,3.89,6.55,10V94.45c7.77-19.17,25-33,42.5-33C509.81,61.44,517.82,67.74,517.82,75Z"/><path d="M626.62,162.7c0,3.41-2.18,7.29-5.58,10.68-8.5,8.74-20.65,14.09-35.7,14.09-19.67,0-34-11.18-34-24.53,0-5.1.72-23.8.72-40.55V79.65H537.5c-4.61,0-7.77-2.42-7.77-6.32,0-4.12,2.68-6.31,7-8.49,15.29-7.29,22.34-15.54,29.14-35,3.88-7.53,5.82-10.92,10-10.92,3.16,0,5.34,2.18,5.34,7.52V64.35h37.64c3.4,0,5.1,1.46,5.1,4.61a41.25,41.25,0,0,1-.73,5.83c-.49,3.4-2.18,4.86-5.34,4.86H581.21V145.2c0,18.23,6.56,23.32,15.54,23.32,8,0,12.87-4.37,18-8.5,1.45-1.45,3.63-3.4,6.06-3.4A5.81,5.81,0,0,1,626.62,162.7Z"/><path d="M782.53,179.69c0,3.41-3.15,5.59-7.77,5.59-6.31,0-11.41-.73-22.58-.73-11.66,0-16.27.73-22.58.73-5.35,0-8.26-2.67-8.26-6.06,0-8.74,15.3-4.37,15.3-17.49a56.8,56.8,0,0,0-.49-7l-5.58-39.1C728.38,101,723.28,84.51,707,84.51c-12.63,0-26.46,9.94-26.46,34.47v38.38c0,18.69,15.05,12.63,15.05,22.09,0,2.67-2.19,5.83-6.8,5.83-5.59,0-12.39-.73-22.82-.73s-17,.73-22.35.73c-5.09,0-7-2.91-7-5.83,0-9.46,14.82-3.4,14.82-22.09V39.59c0-15.06-16.76-7.53-16.76-17.74,0-4.6,5.34-7.53,20.16-14.56C668.89.73,671.81,0,674.47,0c4.62,0,6.08,3.88,6.08,8.51V85.22c7.77-12.62,20.88-23.78,39.57-23.78,27.2,0,36.18,25,39.35,47.84l6.06,45.41C768.45,177,782.53,169.73,782.53,179.69Z"/><path d="M797.85,179.45l-7.77-16.51c-3.88-8.25-6.31-12.14-6.31-16s2.43-6.08,5.58-6.08c2.67,0,5.34,2.19,8.5,5.12,15.06,14.81,32.54,26.45,51.48,26.45,14.57,0,23.31-7.76,23.31-17,0-12.39-13.83-14.81-34.48-19.67-24.77-5.58-51.48-14.32-51.48-39.1,0-20.16,18.21-35.2,43.71-35.2,13.84,0,24.53,4.37,28.66,4.37,4.37,0,4.37-4.85,9.46-4.85,4.62,0,7,4.12,10.21,8.74l8.5,13.6c2.92,4.86,5.58,10,5.58,13.11a5.26,5.26,0,0,1-5.09,5.58c-2.92,0-5.59-2.68-8.51-5.09C866.32,85.48,849.33,76,834,76c-11.41,0-18.45,5.59-18.45,13.6,0,10.92,11.9,13.35,33.75,18.93,26.48,6.07,52,14.09,52,40.56,0,23.79-22.1,38.12-51.49,38.12-16.75,0-27.43-4.85-31.56-4.85-5.59,0-6.07,6.31-11.66,6.31C802,188.68,799.79,183.59,797.85,179.45Z"/><path d="M1052.1,179.69c0,3.41-3.15,5.59-7.76,5.59-6.31,0-11.42-.73-22.59-.73-11.65,0-16.27.73-22.58.73-5.34,0-8.25-2.67-8.25-6.06,0-8.74,15.29-4.37,15.29-17.49a54.93,54.93,0,0,0-.49-7l-5.57-39.1C998,101,992.86,84.51,976.58,84.51c-12.62,0-26.46,9.94-26.46,34.47v38.38c0,18.69,15.06,12.63,15.06,22.09,0,2.67-2.18,5.83-6.8,5.83-5.59,0-12.39-.73-22.83-.73s-17,.73-22.34.73c-5.1,0-7-2.91-7-5.83,0-9.46,14.81-3.4,14.81-22.09V39.59c0-15.06-16.75-7.53-16.75-17.74,0-4.6,5.34-7.53,20.15-14.56C938.47.73,941.38,0,944.05,0c4.61,0,6.07,3.88,6.07,8.51V85.22C957.89,72.6,971,61.44,989.71,61.44c27.19,0,36.17,25,39.33,47.84l6.07,45.41C1038,177,1052.1,169.73,1052.1,179.69Z"/><path d="M1054.56,125.54c0-37.87,29.62-66.05,70.17-66.05,40.07,0,66.29,27,66.29,63.86,0,38.13-30.1,65.82-69.93,65.82C1080.78,189.17,1054.56,162.21,1054.56,125.54Zm105.14,7c0-27.43-16.27-57.3-40.79-57.3-20.65,0-32.79,16.51-32.79,41,0,27.2,16,57.07,40.8,57.07C1147.56,173.38,1159.7,156.88,1159.7,132.58Z"/><path d="M1290.36,162.7c0,3.41-2.18,7.29-5.59,10.68-8.5,8.74-20.63,14.09-35.68,14.09-19.68,0-34-11.18-34-24.53,0-5.1.73-23.8.73-40.55V79.65h-14.58c-4.61,0-7.76-2.42-7.76-6.32,0-4.12,2.66-6.31,7-8.49,15.31-7.29,22.34-15.54,29.14-35,3.89-7.53,5.84-10.92,10-10.92,3.15,0,5.34,2.18,5.34,7.52V64.35h37.63c3.41,0,5.11,1.46,5.11,4.61a41.21,41.21,0,0,1-.74,5.83c-.47,3.4-2.18,4.86-5.33,4.86H1245V145.2c0,18.23,6.55,23.32,15.54,23.32,8,0,12.88-4.37,18-8.5,1.46-1.45,3.65-3.4,6.08-3.4A5.81,5.81,0,0,1,1290.36,162.7Z"/><path d="M1351.06,29.39c0,22.34-21.61,44.19-32.54,44.19-3.65,0-5.83-2.19-5.83-5.35,0-2.9,1.94-4.6,4.61-6.79,4.13-2.91,10.44-8.74,10.44-14.57,0-3.65-4.12-5.35-7.76-7-4.86-2.41-9.72-5.34-9.72-13.35,0-9.48,9.23-17,20.89-17C1344.5,9.47,1351.06,16.27,1351.06,29.39Zm49.54,0c0,22.34-21.62,44.19-32.55,44.19-3.39,0-5.82-2.19-5.82-5.35,0-2.9,1.94-4.6,4.61-6.79,4.13-2.91,10.44-8.74,10.44-14.57,0-3.65-4.12-5.35-7.76-7-4.86-2.41-9.72-5.34-9.72-13.35,0-9.48,9.23-17,20.89-17C1394,9.47,1400.6,16.27,1400.6,29.39Z"/><path d="M115.26,267.09c0-8.29,8.12-16.75,12.48-16.75a2.15,2.15,0,0,1,2.3,2.13c0,1.2-.94,1.8-2,2.65-1.54,1.2-3.42,3.16-3.42,5,0,1.46,1.71,2,3.08,2.74,2,.85,3.84,2.05,3.84,5.21,0,3.85-3.67,6.92-8.46,6.92C117.91,275,115.26,272.39,115.26,267.09Zm19,0c0-8.29,8-16.75,12.39-16.75a2.1,2.1,0,0,1,2.31,2.13c0,1.2-.85,1.8-2,2.65-1.46,1.2-3.42,3.16-3.42,5,0,1.46,1.71,2,3.16,2.74,1.88.85,3.76,2.05,3.76,5.21,0,3.85-3.59,6.92-8.46,6.92C136.8,275,134.23,272.39,134.23,267.09Z"/><path d="M162.91,310.59l-3.67-7.95c-1.89-4-2.83-6.15-2.83-7.86a2.61,2.61,0,0,1,2.48-2.91c1.54,0,2.65,1.28,3.68,2.31,5.72,6.07,13.25,12.73,23.67,12.73,7.86,0,11.88-3.67,11.88-8.72,0-6.58-6.49-8.46-16-11.19-10.77-3.08-23.67-7.35-23.67-19.91,0-9.58,8.29-16.58,19.14-16.58,7,0,10.51,2.05,12.48,2.05s2.13-2.65,4.44-2.65,3.08,2.05,5.22,5.47l2.3,3.93c2.82,4.61,3.68,6.84,3.68,8.2a2.14,2.14,0,0,1-2.14,2.23c-1.37,0-2.31-.94-3.76-2.31-5-5.13-11.88-9.92-20-9.92-5.21,0-8.46,2.4-8.46,6.33,0,5.13,5.3,6.58,14.53,9.31,12.56,3.51,25.13,7.78,25.13,21.71,0,12-9.75,19.23-23.76,19.23-8,0-13.08-2.39-15.39-2.39s-2.82,2.9-5,2.9C165,314.6,164,313,162.91,310.59Z"/><path d="M248.14,304.52a6.41,6.41,0,0,1-2.14,4.1c-3,3.08-7.26,5.22-13.24,5.22-7.27,0-12.82-4.19-12.82-9.32,0-1.79.34-8.38.34-14.27V276.4h-4.53c-1.88,0-3.16-1-3.16-2.65s1.11-2.56,2.9-3.59c5.47-2.82,8.21-5.55,11-11.45,2-3.16,2.73-4.53,4.44-4.53,1.29,0,2.14.86,2.14,3.08V270h12.05a1.88,1.88,0,0,1,2.14,2.05,15.38,15.38,0,0,1-.26,2.23c-.26,1.45-.94,2.13-2.31,2.13H233.1v21.28c0,6.58,2.14,8.29,5.13,8.29,2.05,0,3.5-1,5.3-2.56a3.76,3.76,0,0,1,2.39-1.2A2.17,2.17,0,0,1,248.14,304.52Z"/><path d="M303.13,307c0,2.39-3.93,6.41-10.69,6.41a10,10,0,0,1-9.23-5.81,22.65,22.65,0,0,1-15.81,6.15c-9.4,0-15.21-5.47-15.21-13.16s6.41-13.93,17.95-13.93A33.54,33.54,0,0,1,279.8,288l-.09-.94c-1-7.26-4.36-10.08-9.23-10.08a17.09,17.09,0,0,0-9.57,3.25,7.59,7.59,0,0,1-3.25,1.28,2.29,2.29,0,0,1-2.22-2.39c0-1.54,1.45-3.17,2.73-4.28,3.42-3.33,9.32-6,16.5-6,10.68,0,16.15,5.47,17.43,14.87l2,14c.77,5.64,2.73,6.58,7.43,7.52A1.76,1.76,0,0,1,303.13,307Zm-21.37-4.62-1.2-9a20.39,20.39,0,0,0-6.32-.94c-5.38,0-8.8,2.31-8.8,6.67s3.16,7.17,7.43,7.17A12.87,12.87,0,0,0,281.76,302.38Z"/><path d="M353.62,272c0,3.07-4.19,2.13-7.18,9.06L332,315c-3.84,9.06-9.4,14.27-16.75,14.27-3.24,0-6-.85-7-2.13-1.53-2-3.41-8.21-3.41-11.45,0-1.8,1-3.17,2.39-3.17.94,0,1.62.43,2.48,1.54,3.25,4.53,5.3,6.33,8.12,6.33s4.7-2.82,6.58-7L308.66,281.1c-3.33-6.92-7.18-6.07-7.18-9.14,0-1.37,1.2-2.22,2.74-2.22,2.22,0,5,.25,9.66.25,4.35,0,6.92-.25,9.14-.25s3.33.85,3.33,2.3c0,3.17-4.27,2.31-4.27,6.24a15.19,15.19,0,0,0,1.45,5.22l7.69,17,6.84-17c1-2.48,1.54-4,1.54-5.47,0-3.34-4.44-2.82-4.44-6,0-1.45,1.11-2.3,3.24-2.3,1.71,0,3.85.25,6.16.25s4.53-.25,6.32-.25C352.42,269.74,353.62,270.59,353.62,272Z"/><path d="M433.86,310.67c0,1.37-1.2,2.23-3.07,2.23-2.23,0-4-.26-8.47-.26-4.61,0-6.32.26-8.63.26s-3.16-1-3.16-2.4c0-3.16,5-2,5-6.07a19.28,19.28,0,0,0-.26-2.82L413.44,289c-.77-5.82-2.82-10.18-7.61-10.18-3.76,0-8,2.91-8,11.46v12.48c0,6.32,5.12,4.44,5.12,7.86,0,1.11-.85,2.39-2.9,2.39s-4.28-.26-8.63-.26-6.41.26-8.47.26-2.9-1.2-2.9-2.39c0-3.42,5-1.54,5-7.86V262.81c0-5.38-5.65-3-5.65-6.83,0-1.88,2.23-3,8.21-5.73,5.64-2.48,6.75-2.73,7.78-2.73,2,0,2.48,1.62,2.48,3.75v26.24a16.4,16.4,0,0,1,14.27-8.46c8.8,0,12.82,7.52,14,16.75l2.06,15.9C429.16,309.31,433.86,307,433.86,310.67Z"/><path d="M488.5,307.34c0,2.39-2.05,3.16-9.23,4.7-4.87,1.11-6.58,1.37-7.52,1.37-2,0-2.74-1.63-2.74-3.51v-4.61a16.84,16.84,0,0,1-14.78,8.46c-9,0-14.79-5.81-14.79-16.41V284.09c0-5.38-6.32-3.76-6.32-7.26,0-2.14,2.05-3.08,8.71-5.3,5.64-2,6.93-2.22,7.7-2.22,2.3,0,2.73,2.13,2.73,4.19v20.25c0,6.92,2.39,10.34,7.69,10.34,4.36,0,9.06-3.07,9.06-11.54v-8.46c0-5.38-7.18-3.59-7.18-7.26,0-2.05,2.14-3,9.57-5.39,5.39-1.79,7-2.13,7.78-2.13,2.39,0,2.65,2.31,2.65,4.19v26C481.83,305,488.5,304.18,488.5,307.34Z"/><path d="M547.05,310.67c0,1.37-1.2,2.23-3.08,2.23-2.22,0-4-.26-8.46-.26-4.62,0-6.33.26-8.55.26s-3.25-1-3.25-2.4c0-3.16,5-2,5-6.58a28.17,28.17,0,0,0-.43-3.84L526.71,289c-.86-5.82-2.83-10.18-7.7-10.18-3.67,0-7.94,2.91-7.94,11.46v12.48c0,6.32,5,4.44,5,7.86a2.51,2.51,0,0,1-2.82,2.39c-2,0-4.36-.26-8.63-.26s-6.5.26-8.55.26-2.91-1.2-2.91-2.39c0-3.42,5.05-1.54,5.05-7.86v-18c0-5.47-5.65-3.08-5.65-6.84,0-1.88,2.14-3.07,8.21-5.72,5.64-2.57,6.67-2.82,7.61-2.82,2.05,0,2.65,1.71,2.65,4.1v4.1a16.36,16.36,0,0,1,14.18-8.46c8.81,0,12.82,7.52,14,16.75l2.14,15.9C542.35,309.31,547.05,307,547.05,310.67Z"/><path d="M600.3,314.35c0,8.8-9.82,14.87-25.64,14.87-16.06,0-25.38-4.36-25.38-10.68,0-3.34,2.48-6.07,6.75-7.78-2.82-1.45-4.7-3.76-4.7-7.1s2.82-7,6.5-9.48c-4.53-2.31-7.09-5.9-7.09-10.51,0-8.12,8-15.3,23.33-15.3,1.19,0,2.3.08,3.42.17.94-8.29,6.49-13.5,10-13.5,2.3,0,4.61,1,7.86,3.67a4.62,4.62,0,0,1,2.22,3.42c0,1.37-.86,2.48-2.82,2.48-5.73.17-10.94.77-12,4.7,8,2,12.48,6.66,12.48,12.73,0,7.95-7.78,15-23.25,15a39.58,39.58,0,0,1-8.8-.94c-1,.94-1.88,1.79-1.88,2.65,0,1.45,1.71,2.05,5.47,2.39,7.86.6,14.53,1.11,19.65,1.45C594.24,303.24,600.3,307,600.3,314.35Zm-12.22,4.36c0-2.14-2-3.59-6.41-4.11-6-.76-12.65-1.36-19.31-2.22a7.17,7.17,0,0,0-2.82,5.22c0,4.44,6.15,6.23,15.21,6.23S588.08,321.36,588.08,318.71Zm-24.7-36.41c0,6,4.62,9.31,9.83,9.31,5.47,0,9.23-3.41,9.23-8.46,0-6-4.61-9.4-9.83-9.4C567.14,273.75,563.38,277.26,563.38,282.3Z"/><path d="M644.88,274.78c0,2.39-1.11,5.55-2.91,9.83-.68,1.71-1.62,2.73-3.07,2.73s-2.23-1.11-2.91-2.48c-1.54-3.07-3-4.87-5.3-4.87-3.33,0-8.54,4.53-8.54,14.87v7.87c0,6.32,6.15,4.1,6.15,7.86,0,1.11-.85,2.39-2.91,2.39-2.22,0-4.87-.26-9.65-.26-4.28,0-6.5.26-8.55.26s-2.91-1.2-2.91-2.39c0-3.42,5.05-1.54,5.05-7.86v-18c0-5.47-5.64-3.08-5.64-6.84,0-1.88,2.13-3.07,8.2-5.72,5.64-2.57,6.67-2.82,7.61-2.82,2,0,2.65,1.71,2.65,4.1v7c2.56-6.5,8.63-11.45,14.78-11.45C641.72,269,644.88,271.7,644.88,274.78Z"/><path d="M700,272c0,3.07-4.19,2.13-7.18,9.06l-14.44,34c-3.85,9.06-9.41,14.27-16.76,14.27-3.24,0-6-.85-7-2.13-1.54-2-3.42-8.21-3.42-11.45,0-1.8,1-3.17,2.39-3.17.94,0,1.62.43,2.48,1.54,3.25,4.53,5.3,6.33,8.12,6.33s4.7-2.82,6.58-7L655,281.1c-3.33-6.92-7.18-6.07-7.18-9.14,0-1.37,1.2-2.22,2.74-2.22,2.22,0,5,.25,9.66.25,4.36,0,6.92-.25,9.14-.25s3.33.85,3.33,2.3c0,3.17-4.27,2.31-4.27,6.24a15.19,15.19,0,0,0,1.45,5.22l7.7,17,6.83-17c1-2.48,1.54-4,1.54-5.47,0-3.34-4.44-2.82-4.44-6,0-1.45,1.11-2.3,3.25-2.3,1.71,0,3.84.25,6.15.25s4.53-.25,6.32-.25C698.76,269.74,700,270.59,700,272Z"/><path d="M713.41,307.94c0,8.54-8.21,17.26-12.74,17.26a2.2,2.2,0,0,1-2.39-2.22c0-1.2.94-1.88,2.05-2.74,1.54-1.19,3.5-3.16,3.5-5.12,0-1.54-1.7-2.05-3.24-2.82-2-.94-3.85-2.14-3.85-5.39,0-3.93,3.76-7.09,8.63-7.09C710.76,299.82,713.41,302.55,713.41,307.94Z"/><path d="M748.1,310.59l-2.82-6.07c-1.28-2.74-2.22-4.27-2.22-5.81a2.27,2.27,0,0,1,2.22-2.48c1.11,0,2.05.77,3.25,2,5.13,5,11.54,9.49,18.63,9.49,4.53,0,7.18-2.31,7.18-5,0-3.76-5-4.53-11.8-6.07C753.31,294.52,744,291,744,282.13c0-7.69,7-13.08,16.32-13.08,4.87,0,8.72,1.37,10.26,1.37,1.71,0,1.71-1.71,3.67-1.71s2.82,1.62,3.93,3.33l3.17,5c1.19,1.79,2.22,3.68,2.22,5a2,2,0,0,1-2,2.13c-1.28,0-2.22-.94-3.33-1.88-4.79-4-10.85-7.26-16.15-7.26-3.42,0-5.73,1.62-5.73,3.93,0,3.5,4.45,4.27,11.45,6,9.58,2.22,18.89,5.13,18.89,14.7,0,9.06-8.63,14.1-19.48,14.1-6,0-9.58-1.53-11.2-1.53-2.14,0-2.31,2.22-4.44,2.22C749.81,314.35,748.87,312.3,748.1,310.59Z"/><path d="M823.45,304.52a6.44,6.44,0,0,1-2.13,4.1c-3,3.08-7.27,5.22-13.25,5.22-7.27,0-12.82-4.19-12.82-9.32,0-1.79.34-8.38.34-14.27V276.4h-4.53c-1.88,0-3.16-1-3.16-2.65s1.11-2.56,2.91-3.59c5.47-2.82,8.2-5.55,11-11.45,2-3.16,2.74-4.53,4.44-4.53,1.29,0,2.14.86,2.14,3.08V270h12.05A1.88,1.88,0,0,1,822.6,272a15.38,15.38,0,0,1-.26,2.23c-.26,1.45-.94,2.13-2.31,2.13H808.41v21.28c0,6.58,2.14,8.29,5.13,8.29,2.05,0,3.5-1,5.3-2.56a3.82,3.82,0,0,1,2.39-1.2A2.17,2.17,0,0,1,823.45,304.52Z"/><path d="M878.44,307c0,2.39-3.93,6.41-10.68,6.41a10,10,0,0,1-9.23-5.81,22.7,22.7,0,0,1-15.82,6.15c-9.4,0-15.21-5.47-15.21-13.16s6.41-13.93,18-13.93a33.54,33.54,0,0,1,9.66,1.36l-.09-.94c-1-7.26-4.36-10.08-9.23-10.08a17.09,17.09,0,0,0-9.57,3.25,7.59,7.59,0,0,1-3.25,1.28,2.3,2.3,0,0,1-2.22-2.39c0-1.54,1.45-3.17,2.73-4.28,3.42-3.33,9.32-6,16.5-6,10.68,0,16.15,5.47,17.43,14.87l2,14c.77,5.64,2.73,6.58,7.44,7.52A1.75,1.75,0,0,1,878.44,307Zm-21.37-4.62-1.19-9a20.5,20.5,0,0,0-6.33-.94c-5.38,0-8.8,2.31-8.8,6.67s3.16,7.17,7.43,7.17A12.87,12.87,0,0,0,857.07,302.38Z"/><path d="M928.93,272c0,3.07-4.19,2.13-7.18,9.06l-14.44,34c-3.85,9.06-9.41,14.27-16.76,14.27-3.24,0-6-.85-7-2.13-1.54-2-3.42-8.21-3.42-11.45,0-1.8,1-3.17,2.39-3.17.94,0,1.62.43,2.48,1.54,3.25,4.53,5.3,6.33,8.12,6.33s4.7-2.82,6.58-7L884,281.1c-3.33-6.92-7.18-6.07-7.18-9.14,0-1.37,1.2-2.22,2.74-2.22,2.22,0,5,.25,9.66.25,4.36,0,6.92-.25,9.14-.25s3.33.85,3.33,2.3c0,3.17-4.27,2.31-4.27,6.24a15.19,15.19,0,0,0,1.45,5.22l7.7,17,6.83-17c1-2.48,1.54-4,1.54-5.47,0-3.34-4.44-2.82-4.44-6,0-1.45,1.11-2.3,3.24-2.3,1.71,0,3.85.25,6.16.25s4.53-.25,6.32-.25C927.73,269.74,928.93,270.59,928.93,272Z"/><path d="M986,271.79a16.78,16.78,0,0,1-.25,2.48c-.17,1.45-.86,2.13-2.22,2.13H974.9v26.33c0,6.32,6.5,4,6.5,7.86,0,1.11-.86,2.39-2.91,2.39-2.31,0-5-.26-9.83-.26-4.44,0-6.66.26-8.63.26-2.13,0-2.9-1.2-2.9-2.39,0-3.42,5-1.54,5-7.86V276.4h-5.55c-1.37,0-2-.68-2.22-2.13a15.34,15.34,0,0,1-.26-2.48c0-1.11.77-1.8,2.14-1.8h5.12c-1-2.9-2.65-5.64-2.65-10.17,0-7.6,6.24-12.73,15.9-12.73,7.61,0,14.53,3.59,14.53,7.09,0,2-1.11,4.1-3.42,7.35a4,4,0,0,1-3.08,2.05,2.42,2.42,0,0,1-2.39-2.31c-1-5.38-1.88-8.8-5.38-8.8-2.91,0-4.62,2.48-4.62,5.81,0,5.05,2.4,7.87,3.76,11.71h10C985.24,270,986,270.68,986,271.79Z"/><path d="M986.59,292c0-13.59,10.86-23.68,26.07-23.68s24.44,9.75,24.44,22.57c0,13.84-11.19,23.58-26.06,23.58C995.82,314.43,986.59,304.69,986.59,292Zm36.67,2.39c0-8.63-5-19.57-13-19.57-6.24,0-9.83,5-9.83,13.67s4.87,19.49,13,19.49C1019.75,307.94,1023.26,302.9,1023.26,294.35Z"/><path d="M1042.13,292c0-13.59,10.86-23.68,26.07-23.68s24.44,9.75,24.44,22.57c0,13.84-11.19,23.58-26.06,23.58C1051.36,314.43,1042.13,304.69,1042.13,292Zm36.67,2.39c0-8.63-5-19.57-13-19.57-6.24,0-9.83,5-9.83,13.67s4.87,19.49,13,19.49C1075.29,307.94,1078.8,302.9,1078.8,294.35Z"/><path d="M1096.12,310.59c0-3.42,5-1.54,5-7.86V262.81c0-5.38-5.64-3-5.64-6.83,0-1.88,2.23-3,8.21-5.73,5.64-2.48,6.75-2.73,7.6-2.73,2,0,2.65,1.62,2.65,4.1v51.11c0,6.32,5.13,4.44,5.13,7.86,0,1.11-.85,2.39-2.9,2.39s-4.28-.26-8.64-.26-6.41.26-8.46.26S1096.12,311.78,1096.12,310.59Z"/><path d="M1124.11,310.59c0-3.42,5-1.54,5-7.86v-18c0-5.47-5.64-3.08-5.64-6.84,0-1.88,2.14-3.07,8.21-5.72,5.64-2.57,6.66-2.82,7.61-2.82,2.05,0,2.64,1.71,2.64,4.1v29.32c0,6.32,5,4.44,5,7.86a2.51,2.51,0,0,1-2.82,2.39c-2,0-4.36-.26-8.64-.26s-6.49.26-8.54.26S1124.11,311.78,1124.11,310.59Zm2.14-52.65c0-4.27,4.53-8.89,10.43-8.89,3.58,0,6.66,2.31,6.66,5.73,0,4.19-5,8.55-10.77,8.55C1128.81,263.33,1126.25,261.19,1126.25,257.94Z"/><path d="M1155.78,310.59l-2.82-6.07c-1.28-2.74-2.22-4.27-2.22-5.81a2.27,2.27,0,0,1,2.22-2.48c1.12,0,2,.77,3.25,2,5.13,5,11.54,9.49,18.63,9.49,4.53,0,7.18-2.31,7.18-5,0-3.76-5-4.53-11.79-6.07-9.23-2.05-18.55-5.55-18.55-14.44,0-7.69,7-13.08,16.33-13.08,4.87,0,8.71,1.37,10.25,1.37,1.71,0,1.71-1.71,3.68-1.71s2.82,1.62,3.93,3.33l3.16,5c1.2,1.79,2.22,3.68,2.22,5a2,2,0,0,1-2,2.13c-1.29,0-2.23-.94-3.34-1.88-4.78-4-10.85-7.26-16.15-7.26-3.42,0-5.73,1.62-5.73,3.93,0,3.5,4.45,4.27,11.46,6,9.57,2.22,18.88,5.13,18.88,14.7,0,9.06-8.63,14.1-19.48,14.1-6,0-9.57-1.53-11.2-1.53-2.13,0-2.31,2.22-4.44,2.22C1157.49,314.35,1156.55,312.3,1155.78,310.59Z"/><path d="M1251.57,310.67c0,1.37-1.2,2.23-3.08,2.23-2.22,0-4-.26-8.46-.26-4.61,0-6.32.26-8.63.26s-3.16-1-3.16-2.4c0-3.16,5-2,5-6.07a21.07,21.07,0,0,0-.25-2.82l-1.8-12.64c-.77-5.82-2.82-10.18-7.6-10.18-3.76,0-8,2.91-8,11.46v12.48c0,6.32,5.13,4.44,5.13,7.86,0,1.11-.85,2.39-2.9,2.39s-4.28-.26-8.64-.26-6.41.26-8.46.26-2.9-1.2-2.9-2.39c0-3.42,5-1.54,5-7.86V262.81c0-5.38-5.64-3-5.64-6.83,0-1.88,2.23-3,8.21-5.73,5.64-2.48,6.75-2.73,7.78-2.73,2,0,2.47,1.62,2.47,3.75v26.24a16.41,16.41,0,0,1,14.28-8.46c8.8,0,12.82,7.52,14,16.75l2,15.9C1246.87,309.31,1251.57,307,1251.57,310.67Z"/><path d="M1267,258.8c0,8.37-8,16.75-12.39,16.75a2.06,2.06,0,0,1-2.31-2.05c0-1.29.86-1.88,2-2.74,1.45-1.2,3.42-3.08,3.42-5,0-1.45-1.71-2.05-3.16-2.73-1.88-.94-3.76-2.14-3.76-5.3,0-3.76,3.59-6.92,8.46-6.92C1264.48,250.85,1267,253.58,1267,258.8Zm19,0c0,8.37-8.12,16.75-12.48,16.75a2.1,2.1,0,0,1-2.31-2.05c0-1.29.86-1.88,2-2.74,1.54-1.2,3.42-3.08,3.42-5,0-1.45-1.71-2.05-3.08-2.73-2-.94-3.85-2.14-3.85-5.3,0-3.76,3.68-6.92,8.47-6.92C1283.37,250.85,1286,253.58,1286,258.8Z"/></g></g></svg>