<svg xmlns="http://www.w3.org/2000/svg" viewBox="0 0 84 84"><defs><style>.cls-1{fill:#bfbcb1;}.cls-2{fill:none;}</style></defs><g id="Layer_2" data-name="Layer 2"><g id="Layer_1-2" data-name="Layer 1"><path class="cls-1" d="M66.65,29.63a6.47,6.47,0,0,0-4.53-4.53C58.09,24,42,24,42,24s-16.09,0-20.12,1.06a6.58,6.58,0,0,0-4.53,4.57C16.29,33.66,16.29,42,16.29,42s0,8.38,1.06,12.37a6.47,6.47,0,0,0,4.53,4.53C26,60,42,60,42,60s16.09,0,20.12-1.06a6.45,6.45,0,0,0,4.53-4.53c1.06-4,1.06-12.37,1.06-12.37S67.75,33.66,66.65,29.63ZM36.86,49.71V34.29L50.24,42Z"/><rect class="cls-2" width="84" height="84"/></g></g></svg>