<svg xmlns="http://www.w3.org/2000/svg" viewBox="0 0 84 84"><defs><style>.cls-1{fill:none;}.cls-2{fill:#bfbcb1;}</style></defs><g id="Layer_2" data-name="Layer 2"><g id="Layer_1-2" data-name="Layer 1"><rect class="cls-1" width="84" height="84"/><path class="cls-2" d="M61.18,32.18c0,.41,0,.84,0,1.27,0,13.07-9.94,28.15-28.15,28.15a27.85,27.85,0,0,1-15.18-4.44,16.86,16.86,0,0,0,2.37.14,19.91,19.91,0,0,0,12.27-4.22,10,10,0,0,1-9.24-6.89,8.79,8.79,0,0,0,1.87.17A9.43,9.43,0,0,0,27.73,46a9.94,9.94,0,0,1-7.93-9.72v-.1a9.76,9.76,0,0,0,4.48,1.21A9.9,9.9,0,0,1,21.23,24.2,28,28,0,0,0,41.62,34.55a10.44,10.44,0,0,1-.22-2.26,9.89,9.89,0,0,1,17.1-6.77,19.69,19.69,0,0,0,6.28-2.38,9.89,9.89,0,0,1-4.35,5.46A20.4,20.4,0,0,0,66.13,27,19.84,19.84,0,0,1,61.18,32.18Z"/></g></g></svg>