<svg xmlns="http://www.w3.org/2000/svg" viewBox="0 0 1400.6 371.4"><defs><style>.cls-1{fill:#bfbcb1;}</style></defs><g id="Layer_2" data-name="Layer 2"><g id="レイヤー_1" data-name="レイヤー 1"><path class="cls-1" d="M0,52.45C0,30.11,21.61,8.25,32.54,8.25c3.4,0,5.83,2.19,5.83,5.35,0,2.91-2.18,4.61-4.86,6.8-4.12,2.92-10.2,8.74-10.2,14.56,0,3.65,4.13,5.35,7.53,7,4.86,2.43,9.72,5.35,9.72,13.35,0,9.48-9,17-20.89,17C6.32,72.37,0,65.56,0,52.45Zm49.54,0c0-22.34,21.61-44.2,32.54-44.2,3.4,0,5.83,2.19,5.83,5.35,0,2.91-2.19,4.61-4.86,6.8-4.13,2.92-10.2,8.74-10.2,14.56,0,3.65,4.13,5.35,7.53,7,4.86,2.43,9.71,5.35,9.71,13.35,0,9.48-9,17-20.88,17C56.1,72.37,49.54,65.56,49.54,52.45Z"/><path class="cls-1" d="M266.93,138.65c0,4.37-1.7,8.26-6.8,18.46l-10.44,22.34c-3.15,6.8-6.32,10.44-10.93,10.44-6.56,0-7.28-5.34-16.27-5.34H142.12c-10.93,0-18.94.73-23.56.73-5.83,0-7.77-2.67-7.77-6.06,0-9.72,15.54-4.14,15.54-20.89v-120c0-16.75-15.54-11.17-15.54-20.89,0-3.39,1.94-6.07,7.77-6.07,4.37,0,12.39.72,23.56.72h70.66c8.5,0,9.23-5.33,15.05-5.33,4.86,0,7.77,3.15,11.91,12.15L249,38.61c4.61,9.23,6.32,13.35,6.32,17.49s-2.92,6.31-5.83,6.31c-3.4,0-5.59-2.19-9.23-5.82-16.76-18-26.47-28.67-46.63-28.67h-18c-15.05,0-17.23,3.41-17.23,11.9V83.3c0,4.11,1.45,5.82,7,5.82h19.42c15.06,0,14.33-18,23.31-18,3.65,0,6.32,2.18,6.32,8s-.73,11.66-.73,17.74c0,6.3.73,12.38.73,18,0,5.82-2.67,8-6.32,8-9,0-8.25-18-23.31-18H165.43c-5.59,0-7,1.69-7,5.82v46.15c0,8.74,2.43,11.89,17.23,11.89h27.2c20.89,0,31.81-11.66,49.06-30.35,3.4-3.89,5.58-6.07,9-6.07A6.21,6.21,0,0,1,266.93,138.65Z"/><path class="cls-1" d="M408.28,171.44c0,5.59-10.19,15.05-25.49,15.05-10.44,0-19.67-5.83-24.29-17.48-9.22,10-25,18.21-44.43,18.21-26,0-42.49-15.05-42.49-36.67s18.45-38.84,50.26-38.84a98.75,98.75,0,0,1,28.41,4.12l-.49-2.92c-3.4-23.79-12.86-31.8-27.92-31.8-10.69,0-20.16,5.09-28.17,11.65-3.16,1.95-5.58,3.16-7.77,3.16a5.7,5.7,0,0,1-5.58-5.84c0-3.39,2.91-6.78,5.82-10,8.75-10.43,26-18.94,45.41-18.94,30.84,0,42.49,18.46,46.14,43.72l5.58,40.29c2.43,17.25,8,19.44,20.89,21.87C406.83,167.54,408.28,169,408.28,171.44Zm-52.93-16.75-3.16-24.53a61.35,61.35,0,0,0-22.09-3.88c-17.73,0-27.93,7.77-27.93,21.37,0,13.11,9.47,21.85,23.31,21.85C337.62,169.5,349.28,162.45,355.35,154.69Z"/><path class="cls-1" d="M517.82,75c0,5.34-2.19,12.86-6.32,24.27-1.46,4.63-3.64,7.29-7.52,7.29-3.65,0-5.34-3.15-7.29-7-3.64-8-7.28-12.39-13.11-12.39-10.44,0-27.93,15.78-27.93,47.59v22.59c0,18.69,18,11.89,18,22.09,0,2.67-1.94,5.83-6.8,5.83-6.07,0-14.08-.73-25.74-.73-10.44,0-17,.73-22.58.73-4.86,0-6.8-2.91-6.8-5.83,0-9.46,14.82-3.4,14.82-22.09V102c0-15.3-16.76-7.77-16.76-18,0-4.37,5.1-7.54,20.16-14.32,14.08-6.56,17-7.29,19.18-7.29,4.85,0,6.55,3.89,6.55,10V94.45c7.77-19.17,25-33,42.5-33C509.81,61.44,517.82,67.74,517.82,75Z"/><path class="cls-1" d="M626.62,162.7c0,3.41-2.18,7.29-5.58,10.68-8.5,8.74-20.65,14.09-35.7,14.09-19.67,0-34-11.18-34-24.53,0-5.1.72-23.8.72-40.55V79.65H537.5c-4.61,0-7.77-2.42-7.77-6.32,0-4.12,2.68-6.31,7-8.49,15.29-7.29,22.34-15.54,29.14-35,3.88-7.53,5.82-10.92,10-10.92,3.16,0,5.34,2.18,5.34,7.52V64.35h37.64c3.4,0,5.1,1.46,5.1,4.61a41.25,41.25,0,0,1-.73,5.83c-.49,3.4-2.18,4.86-5.34,4.86H581.21V145.2c0,18.23,6.56,23.32,15.54,23.32,8,0,12.87-4.37,18-8.5,1.45-1.45,3.63-3.4,6.06-3.4A5.81,5.81,0,0,1,626.62,162.7Z"/><path class="cls-1" d="M782.53,179.69c0,3.41-3.15,5.59-7.77,5.59-6.31,0-11.41-.73-22.58-.73-11.66,0-16.27.73-22.58.73-5.35,0-8.26-2.67-8.26-6.06,0-8.74,15.3-4.37,15.3-17.49a56.8,56.8,0,0,0-.49-7l-5.58-39.1C728.38,101,723.28,84.51,707,84.51c-12.63,0-26.46,9.94-26.46,34.47v38.38c0,18.69,15.05,12.63,15.05,22.09,0,2.67-2.19,5.83-6.8,5.83-5.59,0-12.39-.73-22.82-.73s-17,.73-22.35.73c-5.09,0-7-2.91-7-5.83,0-9.46,14.82-3.4,14.82-22.09V39.59c0-15.06-16.76-7.53-16.76-17.74,0-4.6,5.34-7.53,20.16-14.56C668.89.73,671.81,0,674.47,0c4.62,0,6.08,3.88,6.08,8.51V85.22c7.77-12.62,20.88-23.78,39.57-23.78,27.2,0,36.18,25,39.35,47.84l6.06,45.41C768.45,177,782.53,169.73,782.53,179.69Z"/><path class="cls-1" d="M797.85,179.45l-7.77-16.51c-3.88-8.25-6.31-12.14-6.31-16s2.43-6.08,5.58-6.08c2.67,0,5.34,2.19,8.5,5.12,15.06,14.81,32.54,26.45,51.48,26.45,14.57,0,23.31-7.76,23.31-17,0-12.39-13.83-14.81-34.48-19.67-24.77-5.58-51.48-14.32-51.48-39.1,0-20.16,18.21-35.2,43.71-35.2,13.84,0,24.53,4.37,28.66,4.37,4.37,0,4.37-4.85,9.46-4.85,4.62,0,7,4.12,10.21,8.74l8.5,13.6c2.92,4.86,5.58,10,5.58,13.11a5.26,5.26,0,0,1-5.09,5.58c-2.92,0-5.59-2.68-8.51-5.09C866.32,85.48,849.33,76,834,76c-11.41,0-18.45,5.59-18.45,13.6,0,10.92,11.9,13.35,33.75,18.93,26.48,6.07,52,14.09,52,40.56,0,23.79-22.1,38.12-51.49,38.12-16.75,0-27.43-4.85-31.56-4.85-5.59,0-6.07,6.31-11.66,6.31C802,188.68,799.79,183.59,797.85,179.45Z"/><path class="cls-1" d="M1052.1,179.69c0,3.41-3.15,5.59-7.76,5.59-6.31,0-11.42-.73-22.59-.73-11.65,0-16.27.73-22.58.73-5.34,0-8.25-2.67-8.25-6.06,0-8.74,15.29-4.37,15.29-17.49a54.93,54.93,0,0,0-.49-7l-5.57-39.1C998,101,992.86,84.51,976.58,84.51c-12.62,0-26.46,9.94-26.46,34.47v38.38c0,18.69,15.06,12.63,15.06,22.09,0,2.67-2.18,5.83-6.8,5.83-5.59,0-12.39-.73-22.83-.73s-17,.73-22.34.73c-5.1,0-7-2.91-7-5.83,0-9.46,14.81-3.4,14.81-22.09V39.59c0-15.06-16.75-7.53-16.75-17.74,0-4.6,5.34-7.53,20.15-14.56C938.47.73,941.38,0,944.05,0c4.61,0,6.07,3.88,6.07,8.51V85.22C957.89,72.6,971,61.44,989.71,61.44c27.19,0,36.17,25,39.33,47.84l6.07,45.41C1038,177,1052.1,169.73,1052.1,179.69Z"/><path class="cls-1" d="M1054.56,125.54c0-37.87,29.62-66.05,70.17-66.05,40.07,0,66.29,27,66.29,63.86,0,38.13-30.1,65.82-69.93,65.82C1080.78,189.17,1054.56,162.21,1054.56,125.54Zm105.14,7c0-27.43-16.27-57.3-40.79-57.3-20.65,0-32.79,16.51-32.79,41,0,27.2,16,57.07,40.8,57.07C1147.56,173.38,1159.7,156.88,1159.7,132.58Z"/><path class="cls-1" d="M1290.36,162.7c0,3.41-2.18,7.29-5.59,10.68-8.5,8.74-20.63,14.09-35.68,14.09-19.68,0-34-11.18-34-24.53,0-5.1.73-23.8.73-40.55V79.65h-14.58c-4.61,0-7.76-2.42-7.76-6.32,0-4.12,2.66-6.31,7-8.49,15.31-7.29,22.34-15.54,29.14-35,3.89-7.53,5.84-10.92,10-10.92,3.15,0,5.34,2.18,5.34,7.52V64.35h37.63c3.41,0,5.11,1.46,5.11,4.61a41.21,41.21,0,0,1-.74,5.83c-.47,3.4-2.18,4.86-5.33,4.86H1245V145.2c0,18.23,6.55,23.32,15.54,23.32,8,0,12.88-4.37,18-8.5,1.46-1.45,3.65-3.4,6.08-3.4A5.81,5.81,0,0,1,1290.36,162.7Z"/><path class="cls-1" d="M1351.06,29.39c0,22.34-21.61,44.19-32.54,44.19-3.65,0-5.83-2.19-5.83-5.35,0-2.9,1.94-4.6,4.61-6.79,4.13-2.91,10.44-8.74,10.44-14.57,0-3.65-4.12-5.35-7.76-7-4.86-2.41-9.72-5.34-9.72-13.35,0-9.48,9.23-17,20.89-17C1344.5,9.47,1351.06,16.27,1351.06,29.39Zm49.54,0c0,22.34-21.62,44.19-32.55,44.19-3.39,0-5.82-2.19-5.82-5.35,0-2.9,1.94-4.6,4.61-6.79,4.13-2.91,10.44-8.74,10.44-14.57,0-3.65-4.12-5.35-7.76-7-4.86-2.41-9.72-5.34-9.72-13.35,0-9.48,9.23-17,20.89-17C1394,9.47,1400.6,16.27,1400.6,29.39Z"/><path class="cls-1" d="M713.37,321.31v0c-1.53-.12-3.69-.23-6.27-.23-5.28,0-20.28,2.31-26.08,21.28-6.12,20,15.6,21.26,27.74,2.12l-2.62,13.13h11.53l7.25-36.33Zm-21.24,27.56c-1.17-1.13-1.57-4.23,2.16-11.59s8.74-10.2,12.55-10.2a24.18,24.18,0,0,1,5.26.62v.13l-.34,1.64C705.85,341.25,694.67,351.39,692.13,348.87Z"/><path class="cls-1" d="M876.67,321.31v0c-1.53-.12-3.69-.23-6.28-.23-5.28,0-20.28,2.31-26.07,21.28-6.13,20,15.59,21.26,27.73,2.12l-2.61,13.13H881l7.24-36.33Zm-21.25,27.56c-1.16-1.13-1.55-4.23,2.15-11.59s8.74-10.2,12.58-10.2a24.32,24.32,0,0,1,5.25.62l0,.13-.33,1.65C869.14,341.25,858,351.39,855.42,348.87Z"/><path class="cls-1" d="M968.47,321.31v0c-1.55-.12-3.71-.23-6.27-.23-5.31,0-20.3,2.31-26.1,21.28-6.12,20,15.61,21.26,27.74,2.12l-2.61,13.13h11.52L980,321.31Zm-21.26,27.56c-1.16-1.13-1.56-4.23,2.16-11.59s8.74-10.2,12.57-10.2a24.24,24.24,0,0,1,5.25.62l0,.13-.33,1.64C961,341.25,949.76,351.39,947.21,348.87Z"/><path class="cls-1" d="M601,321.25l0,.16c-1.55-.14-4-.3-7.08-.3-5.3,0-20.29,2.31-26.09,21.28-6.1,19.93,15.44,21.26,27.6,2.35l-2.46,12.31a10.87,10.87,0,0,1-2.84,5.51c-1.49,1.56-4.17,2.35-8,2.35a37.63,37.63,0,0,1-4.93-.35,40.47,40.47,0,0,1-5.19-1c-1.78-.47-4.11-1.2-7-2.23l.82,8.24a59.69,59.69,0,0,0,14.64,1.84,37.28,37.28,0,0,0,12.07-1.91,17.68,17.68,0,0,0,8.46-5.47q2.82-3.58,4.76-13.27l5.88-29.5Zm-22.1,27.62c-1.15-1.13-1.55-4.23,2.16-11.59s8.74-10.2,12.57-10.2a23.32,23.32,0,0,1,5.77.76l0,.19,0-.18C593.65,340.3,581.54,351.5,578.87,348.87Z"/><path class="cls-1" d="M1021.07,321.25l0,.16c-1.55-.14-4-.3-7.08-.3-5.3,0-20.29,2.31-26.09,21.28-6.09,19.93,15.44,21.26,27.62,2.34L1013,357.05a11,11,0,0,1-2.86,5.51c-1.49,1.56-4.16,2.35-8,2.35a37.48,37.48,0,0,1-4.92-.35,40.14,40.14,0,0,1-5.19-1c-1.79-.47-4.12-1.2-7-2.23l.83,8.24a59.55,59.55,0,0,0,14.63,1.84,37.35,37.35,0,0,0,12.08-1.91A17.51,17.51,0,0,0,1021,364q2.84-3.58,4.77-13.27l5.89-29.5ZM999,348.87c-1.15-1.13-1.55-4.23,2.16-11.59s8.75-10.2,12.58-10.2a23.3,23.3,0,0,1,5.76.76l0,.19,0-.18C1013.75,340.3,1001.64,351.5,999,348.87Z"/><path class="cls-1" d="M476.53,357.58l9.76-49h24.16c6.16,0,10.74.57,13.75,1.68a15.3,15.3,0,0,1,7.26,5.44,17.51,17.51,0,0,1,2.95,9.86,31,31,0,0,1-16,28q-7.36,3.93-19.48,3.93Zm13.39-6.73h6.87q8.16,0,13.3-3a22.46,22.46,0,0,0,8.31-9,23.87,23.87,0,0,0,3-12.3c-.14-4-1.71-6.79-4.71-8.55s-8.34-2.63-16.07-2.63H497Z"/><path class="cls-1" d="M540.79,357.58,548,321.25h11.54l-7.25,36.33Zm8.45-42.45,1.72-8.59h11.55l-1.71,8.59Z"/><path class="cls-1" d="M618.57,357.58l7.24-36.33h11.53l-7.25,36.33ZM627,315.13l1.72-8.59h11.55l-1.71,8.59Z"/><path class="cls-1" d="M668.48,357.28a33.09,33.09,0,0,1-7.72,1q-6.28,0-8.92-2.35a7.18,7.18,0,0,1-2.76-5.18,24.43,24.43,0,0,1,.57-5l3.64-18.34h-6.48l1.37-6.14h6.33l1.23-6.12,11.8-1.31-1.48,7.43h8.83l-1.23,6.14h-8.81l-3.52,17.66a14.49,14.49,0,0,0-.4,3.25,2.85,2.85,0,0,0,1.43,2.65,6,6,0,0,0,2.77.74,13.34,13.34,0,0,0,4.63-.84Z"/><path class="cls-1" d="M731.91,357.58l10.41-52.22h11.53l-10.42,52.22Z"/><path class="cls-1" d="M829.57,356.09a109.49,109.49,0,0,1-22,2.68q-11.05,0-17.31-5a17.18,17.18,0,0,1-6.54-13.42,28.57,28.57,0,0,1,4.43-16.15A34.48,34.48,0,0,1,801,311.89q8.13-4.58,19.7-4.57a91.54,91.54,0,0,1,17.15,1.91l-1.52,7.91q-4.4-1.35-7-1.95a46,46,0,0,0-4.91-.87,39.43,39.43,0,0,0-4.57-.27,22.22,22.22,0,0,0-12.09,3.23,23.54,23.54,0,0,0-8.31,9.47,25.24,25.24,0,0,0-3,12.55,12.14,12.14,0,0,0,4.24,9.36c2.7,2.25,6.42,3.38,11.21,3.38a25.55,25.55,0,0,0,6.86-1l3.1-15.55h11.78Z"/><path class="cls-1" d="M894.79,357.58,902,321.25h11.52l-3,15.07a39.8,39.8,0,0,1,9.69-11.64q5.4-4.26,10-4.26c1,0,2,0,3.61.08l-3,9.27a14.3,14.3,0,0,0-3.64-.36c-2.9,0-6,1.68-9.23,5a92.42,92.42,0,0,0-9.24,11.08l-2.43,12.08Z"/><path class="cls-1" d="M1075.65,354.13a58.32,58.32,0,0,1-20.67,4.29,22.93,22.93,0,0,1-8.81-1.64,11.71,11.71,0,0,1-5.72-4.55,12.38,12.38,0,0,1-1.88-6.06,22.38,22.38,0,0,1,3.56-12.61,27,27,0,0,1,9.95-9.67,26.34,26.34,0,0,1,13.16-3.47q5.19,0,8.14,2.16a7,7,0,0,1,3.08,5.59,11.16,11.16,0,0,1-2.87,7.6,22.49,22.49,0,0,1-9.16,6.09,44.69,44.69,0,0,1-14.48,2.85c.26,2.85,1.22,4.75,2.89,5.72a10.94,10.94,0,0,0,5.55,1.44,35.86,35.86,0,0,0,8.16-1.3,51.86,51.86,0,0,0,10.62-4.07Zm-25.09-15.54q7.77,0,11.51-2.73c2.48-1.82,3.7-3.7,3.62-5.65a3.24,3.24,0,0,0-1-2.27,4.07,4.07,0,0,0-2.93-1c-2,0-4.08,1-6.31,2.93S1051.55,334.73,1050.56,338.59Z"/><path class="cls-1" d="M440.92,313.75H415.67a16.47,16.47,0,0,0-5.53,1.07l-56,22.84a1.71,1.71,0,0,0-.58,3l26.16,21.94a8.31,8.31,0,0,0,5,2l35.66,0a4.54,4.54,0,0,0,3.91-2.66L430,347.17a1.83,1.83,0,0,0-1.82-2.67H416.08a5.11,5.11,0,0,0-4.29,2.66l-2.38,6a4.5,4.5,0,0,1-3.9,2.66H401a8.89,8.89,0,0,1-5.05-1.9l-16.12-11.72a1.67,1.67,0,0,1,.5-3L415,324.42a16.76,16.76,0,0,1,5.52-1.12l17.11-.07a3.91,3.91,0,0,0,3.53-2.56l1.62-4.24A1.84,1.84,0,0,0,440.92,313.75Zm-32.26-6.16-38.24-21.12a13.89,13.89,0,0,0-5.36-1.45l-21.39-.09a4.39,4.39,0,0,0-3.88,2.63L323.6,331.28a1.88,1.88,0,0,0,1.89,2.69l20.39,0a17.24,17.24,0,0,0,5.54-1.07l57.07-22.87C410,309.47,410.05,308.35,408.66,307.59Zm-26.83,1.51-27.24,11.33a16.85,16.85,0,0,1-5.51,1.11h-2.2a1.87,1.87,0,0,1-1.88-2.69l7.5-20.19a4.46,4.46,0,0,1,3.87-2.71h2.13a14.08,14.08,0,0,1,5.42,1.33l18,9.39C383.34,307.4,383.29,308.49,381.83,309.1Z"/></g></g></svg>