<svg xmlns="http://www.w3.org/2000/svg" viewBox="0 0 303.68 77.21"><defs><style>.cls-1{fill:#6eb950;}.cls-2{fill:#8cc86e;}.cls-3{fill:#a5d296;}.cls-4{fill:#c3dcaf;}.cls-5{fill:none;}</style></defs><g id="Layer_2" data-name="Layer 2"><g id="Layer_1-2" data-name="Layer 1"><g id="Layer_2-2" data-name="Layer 2"><g id="レイヤー_1" data-name="レイヤー 1"><polyline class="cls-1" points="84.03 21.23 83.89 21.12 83.85 11.4 83.98 11.25 87.4 11.22 87.56 11.33 87.58 21.06 87.47 21.2 87.44 21.23 84.03 21.23"/><polyline class="cls-1" points="84.03 65.99 83.89 65.88 83.85 56.15 83.98 56.01 87.4 55.98 87.56 56.1 87.58 65.81 87.47 65.97 87.44 65.99 84.03 65.99"/><polyline class="cls-1" points="58.52 40.51 58.36 40.4 58.34 36.96 58.45 36.81 68.16 36.78 68.32 36.91 68.35 40.33 68.22 40.49 68.21 40.51 58.52 40.51"/><polyline class="cls-1" points="103.27 40.52 103.13 40.41 103.1 36.97 103.21 36.81 112.93 36.8 113.08 36.91 113.11 40.35 112.98 40.49 112.97 40.52 103.27 40.52"/><polyline class="cls-2" points="59.8 30.11 59.71 29.94 60.98 26.75 61.14 26.66 70.17 30.29 70.26 30.45 68.97 33.63 68.81 33.73 68.78 33.74 59.8 30.11"/><polyline class="cls-2" points="101.27 46.92 101.17 46.76 102.46 43.58 102.64 43.48 111.63 47.11 111.72 47.27 110.47 50.47 110.29 50.55 110.26 50.57 101.27 46.92"/><polyline class="cls-3" points="96.95 52.19 96.92 52.01 99.34 49.56 99.52 49.53 106.47 56.3 106.5 56.49 104.11 58.95 103.94 58.99 103.89 58.99 96.95 52.19"/><polyline class="cls-3" points="64.96 20.91 64.94 20.72 67.32 18.26 67.51 18.22 74.48 25.02 74.51 25.21 72.11 27.65 71.92 27.68 71.89 27.68 64.96 20.91"/><polyline class="cls-4" points="94.6 64.46 90.79 55.5 90.86 55.33 94.01 53.97 94.18 54.04 97.97 62.97 97.92 63.16 94.74 64.53 94.6 64.46"/><polyline class="cls-4" points="77.25 23.19 73.46 14.24 73.51 14.05 76.66 12.7 76.85 12.75 80.64 21.71 80.59 21.9 77.39 23.24 77.25 23.19"/><polyline class="cls-1" points="91.17 22.04 91.08 21.89 94.98 12.96 95.15 12.86 98.31 14.23 98.39 14.39 94.5 23.27 94.34 23.36 94.31 23.38 91.17 22.04"/><polyline class="cls-1" points="73.14 63 73.05 62.82 76.93 53.94 77.09 53.86 80.27 55.17 80.37 55.34 76.45 64.25 76.29 64.35 76.26 64.36 73.14 63"/><polyline class="cls-1" points="67.16 58.78 64.77 56.31 64.74 56.12 71.71 49.42 71.9 49.39 74.35 51.81 74.37 52 67.32 58.78 67.16 58.78"/><polyline class="cls-1" points="99.55 27.82 97.1 25.4 97.06 25.23 104.1 18.46 104.29 18.45 106.68 20.9 106.71 21.09 99.71 27.82 99.55 27.82"/><polyline class="cls-1" points="60.98 50.44 59.68 47.27 59.74 47.08 68.73 43.44 68.92 43.5 70.23 46.67 70.2 46.84 61.14 50.5 60.98 50.44"/><polyline class="cls-1" points="102.54 33.76 101.22 30.59 101.27 30.4 110.28 26.75 110.45 26.82 111.75 29.99 111.71 30.16 102.68 33.82 102.54 33.76"/><rect x="142.81" y="29.76" width="3.5" height="17.76"/><path d="M150.51,44.85a1.39,1.39,0,1,0,1.37,1.4v0a1.39,1.39,0,0,0-1.37-1.37"/><path d="M139.07,39.6a3.64,3.64,0,0,0-2.52-1.72,3.21,3.21,0,0,0,1.93-1.19h0a4.12,4.12,0,0,0,.62-2.42,4.29,4.29,0,0,0-1-3.19,5.41,5.41,0,0,0-4.28-1.25h-6.1v17.7h6.69c2.69,0,4.12-.91,4.91-3.19a6.58,6.58,0,0,0,.27-2.16,5.35,5.35,0,0,0-.54-2.58h0m-8-7.4c2.46,0,4.41-.29,4.41,2.43s-2.85,2.44-2.85,2.44h-1.59Zm1.76,12.73h-1.76V39.35c2.74,0,4.94-.32,4.94,2.8A2.78,2.78,0,0,1,133.33,45a3,3,0,0,1-.42,0Z"/><polyline points="238.46 32.1 238.46 32.09 245.34 32.09 245.34 29.73 234.77 29.73 234.77 47.57 245.34 47.57 245.34 45.22 240.04 45.19 238.26 45.19 238.26 39.28 244.78 39.28 244.78 37.01 239.72 36.97 238.26 36.97 238.26 32.1 238.46 32.1"/><path d="M160.78,31.82c2.67.09,3,1.4,3,3.18h3.5v-.24a7.75,7.75,0,0,0-.17-1.73c-.88-3.19-3.19-3.78-6.37-3.79-5.9,0-6.37,3.18-6.62,8v2.67c0,4.62.43,7.88,6,8.12a5.19,5.19,0,0,0,2.75-.72h0a3.7,3.7,0,0,0,1.59-1.75,4.84,4.84,0,0,0,.18-.49v2.62h2.55V38.17h-6v2.27h2.71a11,11,0,0,1-.13,2.22h0a3.37,3.37,0,0,1-.84,1.81,2.7,2.7,0,0,1-2.09.78c-3,0-3-2.45-3-3.76V36.21a5,5,0,0,1,.93-3.63,2.77,2.77,0,0,1,2.08-.76"/><path d="M199.47,41.67a3.39,3.39,0,0,0,0-.78h0v-.53a4,4,0,0,0-.19-.43h0a2.44,2.44,0,0,0-.91-.92,8.34,8.34,0,0,0-1.69-.62,4.15,4.15,0,0,0,1.45-.57,3.9,3.9,0,0,0,.51-.4h0a4.47,4.47,0,0,0,.42-.45h0l.14-.22h0a5.26,5.26,0,0,0,.64-2.75c0-2.82-1.88-4.19-5.73-4.19h-7.36V47.57h3.5V39.71h1.6a10.45,10.45,0,0,1,2.61.24c1.41.37,1.44,1.89,1.48,3v.86a13.87,13.87,0,0,0,.33,3.74h4c-.59-.5-.86-2.29-.84-5.64V41.7m-6.46-4.25h-2.64V32.28h2c2.12,0,3.7,0,3.7,2.58,0,2.86-3,2.56-3,2.56Z"/><path d="M225.24,31.82c2.66.09,2.94,1.4,3,3.18h3.58v-.24a7.21,7.21,0,0,0-.18-1.73c-.87-3.19-3.18-3.78-6.36-3.79-5.89,0-6.37,3.18-6.61,8v2.67c0,4.62.41,7.88,5.95,8.12a5.29,5.29,0,0,0,2.77-.72h0A3.7,3.7,0,0,0,229,45.52a4.84,4.84,0,0,0,.18-.49v2.56h2.53V38.17h-6.1v2.27h2.71a11,11,0,0,1-.13,2.22h0a3.43,3.43,0,0,1-.83,1.81,2.77,2.77,0,0,1-2.1.78c-3,0-3-2.45-3-3.79V36.21a5.09,5.09,0,0,1,.9-3.63,2.83,2.83,0,0,1,2.11-.76"/><path d="M179.57,29.73h-5l-4.86,17.84h3.76l.53-2.32.49-2.31h4.77v.15h0l1,4.47h3.75l-4.61-17.84m-.93,10.91H175L177,32.58l1.72,7.4.13.51h0v.14Z"/><path d="M212.14,29.73h-4.95L202.3,47.57h3.76l.54-2.32.49-2.31H212v.15h0l1,4.47h3.78l-4.57-17.83m-2.6,10.92H207.6l1.94-8,1.71,7.4.12.51h0v.14Z"/></g></g><rect class="cls-5" width="303.68" height="77.21"/></g></g></svg>