<svg xmlns="http://www.w3.org/2000/svg" viewBox="0 0 303.68 77.21"><defs><style>.cls-1{fill:none;}</style></defs><g id="Layer_2" data-name="Layer 2"><g id="Layer_1-2" data-name="Layer 1"><rect class="cls-1" width="303.68" height="77.21"/><g id="Layer_2-2" data-name="Layer 2"><g id="レイヤー_1" data-name="レイヤー 1"><path d="M156.3,36.31h-2a9.15,9.15,0,0,0-8.72,7.12c-2,6.72,5.21,7.12,9.28.72L154,48.54h3.87l2.25-12.23Zm-7.12,9.22c-.38-.38-.52-1.42.74-3.89a5.19,5.19,0,0,1,4.15-3.49,8.14,8.14,0,0,1,1.77.2h0l-.12.57C153.79,43,150.06,46.38,149.18,45.53Z"/><path d="M211,36.31h-2a9.16,9.16,0,0,0-8.79,7c-2,6.72,5.22,7.12,9.29.72l-.89,4.39h3.84l2.4-12.15Zm-7.12,9.22c-.38-.38-.52-1.42.72-3.89s2.93-3.49,4.22-3.49a8.05,8.05,0,0,1,1.76.2h0v.57C208.46,43,204.73,46.38,203.87,45.53Z"/><path d="M241.74,36.31h-2A9.17,9.17,0,0,0,231,43.43c-2,6.72,5.23,7.12,9.28.72l-.86,4.39h3.85l2.43-12.15Zm-7.12,9.22c-.4-.38-.52-1.42.72-3.89s3-3.49,4.21-3.49a8,8,0,0,1,1.75.2h0v.57C239.21,43,235.46,46.38,234.62,45.53Z"/><path d="M118.65,36.29h-2.39a9.17,9.17,0,0,0-8.72,7.06c-2,6.68,5.17,7.12,9.25.8l-.83,4A3.63,3.63,0,0,1,115,50a3.67,3.67,0,0,1-2.69.78,15,15,0,0,1-1.64,0,15,15,0,0,1-1.75-.34c-.58-.16-1.36-.4-2.32-.74l.28,2.74a20.18,20.18,0,0,0,4.89.63,12.71,12.71,0,0,0,4-.65,6,6,0,0,0,2.83-1.82,11.29,11.29,0,0,0,1.63-4.45l2-9.87Zm-7.4,9.24c-.38-.38-.52-1.42.72-3.89s2.93-3.49,4.21-3.49a8.5,8.5,0,0,1,2,.24h0C116.2,42.67,112.15,46.42,111.25,45.53Z"/><path d="M259.35,36.29H257a9.15,9.15,0,0,0-8.64,7.06c-2,6.68,5.15,7.12,9.24.78l-.92,4A3.11,3.11,0,0,1,253,50.81a15.14,15.14,0,0,1-1.65,0,14.85,14.85,0,0,1-1.74-.34c-.6-.16-1.38-.4-2.33-.74l.28,2.74a20.26,20.26,0,0,0,4.9.63,12.43,12.43,0,0,0,4-.65,5.91,5.91,0,0,0,2.83-1.82,10.94,10.94,0,0,0,1.6-4.45l2-9.87ZM252,45.53c-.38-.38-.52-1.42.72-3.89s2.93-3.41,4.21-3.41a8.5,8.5,0,0,1,2,.24h0C256.9,42.67,252.85,46.42,252,45.53Z"/><path d="M77,48.44l3.27-16.3h8a13.46,13.46,0,0,1,4.59.56,5,5,0,0,1,2.45,1.8,5.91,5.91,0,0,1,1,3.31,10.17,10.17,0,0,1-1.39,5.52,10,10,0,0,1-4,3.87,13.71,13.71,0,0,1-6.52,1.32Zm4.5-2.26h2.4a8.67,8.67,0,0,0,4.46-1,7.65,7.65,0,0,0,2.68-3,8.14,8.14,0,0,0,1-4,3.25,3.25,0,0,0-1.59-2.86A11.63,11.63,0,0,0,85,34.4H83.87Z"/><path d="M98.49,48.44l2.43-12.15h3.87l-2.42,12.15Zm2.85-14.3.58-2.79h3.87l-.58,2.79Z"/><path d="M124.55,48.44,127,36.29h3.88l-2.43,12.15Zm2.83-14.3.62-2.79h3.87l-.62,2.79Z"/><path d="M141.27,48.34a10.19,10.19,0,0,1-2.58.32,4.47,4.47,0,0,1-3-.78,2.36,2.36,0,0,1-.92-1.74,6.73,6.73,0,0,1,.18-1.67l1.22-6.14H134l.47-2h2.1l.42-2,4-.44-.5,2.51h3l-.42,2h-3l-1.16,5.78a3.94,3.94,0,0,0-.12,1.08.94.94,0,0,0,.46.89,1.82,1.82,0,0,0,.94.26,5.11,5.11,0,0,0,1.55-.28Z"/><path d="M162.51,48.44,166.1,31H170l-3.49,17.49Z"/><path d="M195.21,47.94a36.57,36.57,0,0,1-7.36.9,9,9,0,0,1-5.7-1.68A5.71,5.71,0,0,1,180,42.67a9.39,9.39,0,0,1,1.49-5.4,11.35,11.35,0,0,1,4.21-4.13,13.21,13.21,0,0,1,6.52-1.52,29,29,0,0,1,5.73.64l-.5,2.64q-1.49-.43-2.34-.66c-.61-.12-1.15-.22-1.65-.28a13.19,13.19,0,0,0-1.54,0,7.42,7.42,0,0,0-4,1.08,7.88,7.88,0,0,0-2.73,3.11,8.27,8.27,0,0,0-1,4.22,4,4,0,0,0,1.42,3.12,5.62,5.62,0,0,0,3.75,1.15,8.55,8.55,0,0,0,2.29-.46l1-5.22h4Z"/><path d="M217.05,48.44l2.45-12.15h3.85l-1.09,5a13.53,13.53,0,0,1,3.25-3.89A5.51,5.51,0,0,1,228.86,36h1.2l-1,3.11a4.18,4.18,0,0,0-1.22-.12,4.58,4.58,0,0,0-3.09,1.66,32.16,32.16,0,0,0-3.09,3.71l-.82,4Z"/><path d="M277.64,47.28a18.46,18.46,0,0,1-3.85,1.12,16.87,16.87,0,0,1-3.09.32,7.64,7.64,0,0,1-2.95-.54,4,4,0,0,1-2-1.52,4.09,4.09,0,0,1-.65-2,7.63,7.63,0,0,1,1.21-4.23,9.1,9.1,0,0,1,3.33-3.25A8.82,8.82,0,0,1,274.05,36a4.62,4.62,0,0,1,2.73.72,2.29,2.29,0,0,1,1,1.86,3.62,3.62,0,0,1-1,2.55,7.67,7.67,0,0,1-3.07,2,15,15,0,0,1-4.86.94,2.36,2.36,0,0,0,1,2,3.61,3.61,0,0,0,1.84.48,13.48,13.48,0,0,0,2.75-.44A16.82,16.82,0,0,0,278,44.79Zm-8.4-5.12a6.45,6.45,0,0,0,3.85-.92,2.35,2.35,0,0,0,1.2-1.88,1.12,1.12,0,0,0-.34-.77,1.41,1.41,0,0,0-1-.32,3.32,3.32,0,0,0-2.13,1A5.47,5.47,0,0,0,269.24,42.16Z"/><path d="M65.06,33.76H56.6a5.84,5.84,0,0,0-1.85.36L36,41.78a.57.57,0,0,0-.2,1l8.76,7.4a2.83,2.83,0,0,0,1.67.66h12A1.55,1.55,0,0,0,59.56,50l2-5a.6.6,0,0,0-.24-.81.65.65,0,0,0-.36-.07H57a1.78,1.78,0,0,0-1.45.88l-.78,2a1.53,1.53,0,0,1-1.3.88H51.78a2.8,2.8,0,0,1-1.68-.64l-5.52-3.93a.56.56,0,0,1-.17-.78.58.58,0,0,1,.35-.24l11.6-5A5.85,5.85,0,0,1,58.22,37h5.72a1.29,1.29,0,0,0,1.18-.82l.54-1.43a.62.62,0,0,0-.17-.86A.64.64,0,0,0,65.06,33.76Zm-10.81-2-12.8-7.12a4.39,4.39,0,0,0-1.7-.53H32.49a1.5,1.5,0,0,0-1.31.89L25.71,39.64a.62.62,0,0,0,.27.84.7.7,0,0,0,.35.06h6.9a5.87,5.87,0,0,0,1.85-.38l19.11-7.62c.5-.2.52-.58.06-.84Zm-9,.38L36.14,36a5.84,5.84,0,0,1-1.85.36h-.72a.62.62,0,0,1-.7-.53.59.59,0,0,1,.06-.37l2.51-6.76a1.54,1.54,0,0,1,1.3-.91h.72a4.73,4.73,0,0,1,1.81.45l6,3.14C45.77,31.64,45.77,32,45.26,32.14Z"/></g></g></g></g></svg>