<svg xmlns="http://www.w3.org/2000/svg" viewBox="0 0 303.68 77.21"><defs><style>.cls-1{fill:none;}.cls-2{fill:#151515;}</style></defs><g id="Layer_2" data-name="Layer 2"><g id="Layer_1-2" data-name="Layer 1"><g id="logo-digitalgarage"><rect class="cls-1" width="303.68" height="77.21"/><path class="cls-2" d="M156.46,36.19h0c-.55,0-1.31-.08-2.22-.08-1.87,0-7.16.82-9.21,7.52-2.16,7.07,5.51,7.51,9.8.75L153.9,49H158l2.56-12.83ZM149,45.92c-.41-.4-.55-1.5.77-4.09s3.09-3.61,4.43-3.61a8.44,8.44,0,0,1,1.86.22v.05l-.11.58C153.8,43.23,149.85,46.81,149,45.92Z"/><path class="cls-2" d="M214.14,36.19h0c-.54,0-1.3-.08-2.22-.08-1.86,0-7.16.82-9.21,7.52-2.16,7.07,5.51,7.51,9.8.75L211.58,49h4.07l2.56-12.83Zm-7.51,9.73c-.41-.4-.55-1.5.76-4.09s3.09-3.61,4.44-3.61a8.6,8.6,0,0,1,1.86.22v.05l-.12.58C211.48,43.23,207.53,46.81,206.63,45.92Z"/><path class="cls-2" d="M246.56,36.19h0c-.54,0-1.3-.08-2.21-.08-1.87,0-7.17.82-9.22,7.52-2.16,7.07,5.51,7.51,9.8.75L244,49h4.07l2.56-12.83Zm-7.51,9.73c-.41-.4-.55-1.5.76-4.09s3.09-3.61,4.44-3.61a8.6,8.6,0,0,1,1.86.22v.05l-.12.58C243.9,43.23,240,46.81,239.05,45.92Z"/><path class="cls-2" d="M116.76,36.16l0,.06c-.54,0-1.42-.11-2.5-.11-1.87,0-7.16.82-9.21,7.52-2.15,7,5.45,7.51,9.75.83l-.87,4.35a3.28,3.28,0,0,1-3.84,2.77,14.4,14.4,0,0,1-3.57-.48q-.94-.24-2.46-.78l.29,2.91a21.11,21.11,0,0,0,5.17.65,13.12,13.12,0,0,0,4.26-.68,6.23,6.23,0,0,0,3-1.93,11.89,11.89,0,0,0,1.68-4.69l2.08-10.42ZM109,45.92c-.4-.4-.54-1.5.77-4.09s3.08-3.61,4.44-3.61a8.35,8.35,0,0,1,2,.27l0,.07V38.5C114.17,42.89,109.9,46.85,109,45.92Z"/><path class="cls-2" d="M265.14,36.16l0,.06c-.54,0-1.42-.11-2.5-.11-1.87,0-7.16.82-9.21,7.52-2.15,7,5.45,7.51,9.75.83l-.87,4.35a3.28,3.28,0,0,1-3.84,2.77,14.4,14.4,0,0,1-3.57-.48c-.63-.16-1.45-.42-2.47-.78l.3,2.91a21.11,21.11,0,0,0,5.17.65,13.12,13.12,0,0,0,4.26-.68,6.1,6.1,0,0,0,3-1.93,11.71,11.71,0,0,0,1.69-4.69l2.08-10.42Zm-7.81,9.76c-.4-.4-.55-1.5.77-4.09s3.09-3.61,4.44-3.61a8.35,8.35,0,0,1,2,.27v.07l0-.06C262.55,42.89,258.28,46.85,257.33,45.92Z"/><path class="cls-2" d="M72.8,49,76.25,31.7h8.54a14.64,14.64,0,0,1,4.85.6,5.38,5.38,0,0,1,2.57,1.92,6.21,6.21,0,0,1,1,3.48,11,11,0,0,1-5.64,9.91A14.77,14.77,0,0,1,80.72,49Zm4.74-2.37H80a9.21,9.21,0,0,0,4.7-1.07,8,8,0,0,0,2.94-3.17,8.41,8.41,0,0,0,1-4.35A3.36,3.36,0,0,0,87,35q-1.57-.93-5.67-.93H80Z"/><path class="cls-2" d="M95.5,49l2.56-12.83h4.08L99.58,49Zm3-15,.6-3h4.08l-.6,3Z"/><path class="cls-2" d="M123,49l2.56-12.83h4.07L127,49Zm3-15,.61-3h4.08l-.6,3Z"/><path class="cls-2" d="M140.6,48.89a11.84,11.84,0,0,1-2.72.34,4.74,4.74,0,0,1-3.15-.83,2.55,2.55,0,0,1-1-1.83,9.34,9.34,0,0,1,.2-1.76l1.29-6.48H133l.48-2.17h2.24L136.1,34l4.17-.46-.52,2.62h3.12l-.44,2.17h-3.11l-1.24,6.24a5.31,5.31,0,0,0-.14,1.15,1,1,0,0,0,.5.93,2.08,2.08,0,0,0,1,.26,4.77,4.77,0,0,0,1.64-.29Z"/><path class="cls-2" d="M163,49l3.68-18.44h4.07L167.07,49Z"/><path class="cls-2" d="M197.5,48.47a38.83,38.83,0,0,1-7.78,1,9.48,9.48,0,0,1-6.11-1.78,6,6,0,0,1-2.31-4.73,10.06,10.06,0,0,1,1.57-5.71,12.09,12.09,0,0,1,4.55-4.34,13.94,13.94,0,0,1,7-1.62,32.45,32.45,0,0,1,6.05.68l-.53,2.79c-1-.32-1.87-.55-2.48-.69a15.52,15.52,0,0,0-1.74-.3,12.54,12.54,0,0,0-1.61-.1,7.85,7.85,0,0,0-4.27,1.14,8.3,8.3,0,0,0-2.93,3.34,9,9,0,0,0-1.06,4.44,4.3,4.3,0,0,0,1.5,3.3,6,6,0,0,0,4,1.2,8.71,8.71,0,0,0,2.42-.36l1.1-5.49H199Z"/><path class="cls-2" d="M220.53,49l2.57-12.83h4.07l-1.06,5.32a14.1,14.1,0,0,1,3.43-4.11,5.86,5.86,0,0,1,3.53-1.5c.36,0,.7,0,1.27,0l-1.07,3.27a5.16,5.16,0,0,0-1.29-.12,4.81,4.81,0,0,0-3.25,1.76,32.65,32.65,0,0,0-3.27,3.92L224.61,49Z"/><path class="cls-2" d="M284.42,47.77a20.41,20.41,0,0,1-7.31,1.52,8,8,0,0,1-3.11-.58,4.16,4.16,0,0,1-2-1.61,4.25,4.25,0,0,1-.66-2.13,7.8,7.8,0,0,1,1.26-4.46,9.59,9.59,0,0,1,3.51-3.42,9.36,9.36,0,0,1,4.65-1.22,4.75,4.75,0,0,1,2.87.76,2.46,2.46,0,0,1,1.09,2,3.92,3.92,0,0,1-1,2.68,7.9,7.9,0,0,1-3.24,2.15,15.66,15.66,0,0,1-5.11,1,2.39,2.39,0,0,0,1,2,3.85,3.85,0,0,0,2,.51,12.83,12.83,0,0,0,2.88-.46A18.08,18.08,0,0,0,285,45.08Zm-8.87-5.48a7,7,0,0,0,4.07-1,2.49,2.49,0,0,0,1.28-2,1.15,1.15,0,0,0-.37-.8,1.45,1.45,0,0,0-1-.35,3.5,3.5,0,0,0-2.23,1A5.81,5.81,0,0,0,275.55,42.29Z"/><path class="cls-2" d="M60.23,33.51H51.31a6.14,6.14,0,0,0-2,.38L29.56,42a.6.6,0,0,0-.2,1.07l9.24,7.75a2.89,2.89,0,0,0,1.75.7H52.94a1.6,1.6,0,0,0,1.39-.94l2.05-5.23a.64.64,0,0,0-.64-.94H51.46a1.82,1.82,0,0,0-1.52.93l-.84,2.13a1.59,1.59,0,0,1-1.38.94h-1.6a3.1,3.1,0,0,1-1.78-.67l-5.7-4.14a.59.59,0,0,1,.18-1.07l12.24-5.22A6.21,6.21,0,0,1,53,36.89l6,0A1.38,1.38,0,0,0,60.3,36l.57-1.5A.65.65,0,0,0,60.23,33.51ZM48.84,31.34,35.33,23.88a4.84,4.84,0,0,0-1.89-.51l-7.56,0a1.56,1.56,0,0,0-1.37.93L18.79,39.71a.66.66,0,0,0,.67.95h7.2a6,6,0,0,0,2-.37l20.15-8.08C49.3,32,49.32,31.61,48.84,31.34Zm-9.48.53-9.62,4a6.25,6.25,0,0,1-1.95.38H27a.65.65,0,0,1-.66-.94L29,28.18a1.57,1.57,0,0,1,1.37-.95h.75A5,5,0,0,1,33,27.7L39.39,31C39.89,31.27,39.87,31.66,39.36,31.87Z"/></g></g></g></svg>