<svg xmlns="http://www.w3.org/2000/svg" viewBox="0 0 1715.86 170.88"><defs><style>.cls-1{fill:#bfbcb1;}</style></defs><g id="Layer_2" data-name="Layer 2"><g id="レイヤー_1" data-name="レイヤー 1"><path class="cls-1" d="M405.87,98.07c0,3.1-1.24,5.74-4.19,12.09l-7.12,15.18c-2.33,5-4.5,7.29-7.75,7.29-4.34,0-5.11-3.72-11.62-3.72H325.6c-8.52,0-13.17.46-16.58.46-4.18,0-5.73-2-5.73-4.49,0-6.51,9.45-3.26,9.45-14.1V36.71c0-10.85-9.45-7.59-9.45-14.1,0-2.48,1.55-4.49,5.73-4.49,3.26,0,7.9.46,16.58.46h43.54c6.2,0,7-3.72,11-3.72,3.4,0,5.57,2.17,8.21,7.91l6.35,13.79c2.79,5.88,4,8.52,4,11.62a4.62,4.62,0,0,1-4.49,5c-2.48,0-4-1.55-6.36-4-10.84-11.47-17.2-18.6-30.06-18.6h-9.76c-8.06,0-9.61,2.17-9.61,7.29V62.9c0,2.94.93,4,4.65,4h9c9.3,0,9.14-11.32,15.34-11.32,2.79,0,4.65,1.71,4.65,6,0,3.56-.47,7.44-.47,11.15,0,3.88.47,7.75.47,11.32,0,4.34-1.86,6-4.65,6-6.2,0-6-11.31-15.34-11.31h-9c-3.72,0-4.65,1.08-4.65,3.87v26.81c0,5.27,1.71,7.44,9.61,7.44h15.19C376.58,117,384,109.54,395,97.3c2.33-2.79,3.88-4.19,6.35-4.19A4.72,4.72,0,0,1,405.87,98.07Z"/><path class="cls-1" d="M502.85,118.53c0,4.33-7.12,11.62-19.37,11.62a18.17,18.17,0,0,1-16.73-10.54,41.14,41.14,0,0,1-28.67,11.16c-17,0-27.58-9.92-27.58-23.87,0-14.1,11.62-25.25,32.54-25.25a59.9,59.9,0,0,1,17.51,2.48l-.15-1.71c-1.86-13.17-7.91-18.28-16.74-18.28-6.82,0-12.4,2.63-17.35,5.89-2.17,1.24-4.19,2.32-5.89,2.32a4.17,4.17,0,0,1-4-4.34c0-2.79,2.63-5.73,5-7.75,6.2-6,16.89-10.84,29.9-10.84,19.37,0,29.29,9.91,31.61,27l3.57,25.41c1.39,10.23,5,11.93,13.48,13.64A3.18,3.18,0,0,1,502.85,118.53Zm-38.74-8.37L462,93.89a37.08,37.08,0,0,0-11.47-1.71c-9.76,0-16,4.19-16,12.09s5.73,13,13.48,13A23.38,23.38,0,0,0,464.11,110.16Z"/><path class="cls-1" d="M579.75,60.11c0,4.34-2,10.07-5.26,17.82-1.24,3.1-3,5-5.58,5s-4-2-5.27-4.5c-2.79-5.58-5.42-8.83-9.61-8.83-6,0-15.49,8.21-15.49,27v14.26c0,11.46,11.15,7.44,11.15,14.25,0,2-1.55,4.34-5.26,4.34-4,0-8.84-.46-17.51-.46-7.75,0-11.78.46-15.5.46s-5.27-2.17-5.27-4.34c0-6.19,9.14-2.79,9.14-14.25V78.08c0-9.91-10.22-5.58-10.22-12.39,0-3.41,3.87-5.58,14.87-10.38,10.23-4.65,12.09-5.12,13.79-5.12,3.72,0,4.81,3.1,4.81,7.44V70.34c4.65-11.78,15.65-20.77,26.8-20.77C574,49.57,579.75,54.53,579.75,60.11Z"/><path class="cls-1" d="M646.8,114c0,2.48-1.7,5.27-3.87,7.44-5.43,5.58-13.17,9.45-24,9.45-13.17,0-23.24-7.59-23.24-16.89,0-3.25.62-15.18.62-25.88V63.05h-8.21c-3.41,0-5.74-1.86-5.74-4.8,0-3.1,2-4.65,5.27-6.51,9.92-5.11,14.88-10.07,20-20.76,3.56-5.74,5-8.21,8.06-8.21,2.32,0,3.87,1.54,3.87,5.57V51.43h21.85c2.48,0,3.87,1.24,3.87,3.72a29.72,29.72,0,0,1-.46,4c-.47,2.63-1.71,3.87-4.19,3.87H619.53v38.59c0,11.93,3.87,15,9.3,15,3.72,0,6.35-1.86,9.6-4.65,1.09-.93,2.48-2.17,4.34-2.17A3.93,3.93,0,0,1,646.8,114Z"/><path class="cls-1" d="M747.35,125.19c0,2.48-2.17,4-5.58,4-4,0-7.28-.47-15.34-.47-8.37,0-11.46.47-15.65.47-4,0-5.73-1.86-5.73-4.34,0-5.73,9-3.57,9-11a35.47,35.47,0,0,0-.47-5.12l-3.25-22.93c-1.4-10.54-5.12-18.44-13.79-18.44-6.82,0-14.57,5.27-14.57,20.76v22.63c0,11.46,9.3,8.06,9.3,14.25,0,2-1.55,4.34-5.27,4.34-3.56,0-7.75-.46-15.65-.46s-11.62.46-15.34.46-5.27-2.17-5.27-4.34c0-6.19,9-2.79,9-14.25V38.42c0-9.77-10.23-5.43-10.23-12.4,0-3.41,4-5.42,14.88-10.38,10.22-4.5,12.24-5,14.1-5,3.56,0,4.49,2.94,4.49,6.82V65.07c4.8-8.22,13.64-15.34,25.88-15.34,16,0,23.24,13.63,25.41,30.37L737,108.92C738.83,122.71,747.35,118.53,747.35,125.19Z"/><path class="cls-1" d="M756.66,125l-5.11-11c-2.32-5-4-7.75-4-10.53,0-3,2-4.5,4-4.5s3.72,1.4,5.89,3.57c9.3,9,20.92,17.2,33.78,17.2,8.21,0,13-4.19,13-9.15,0-6.81-9.15-8.21-21.39-11-16.73-3.72-33.62-10.07-33.62-26.19,0-13.94,12.7-23.7,29.59-23.7,8.84,0,15.81,2.48,18.6,2.48,3.1,0,3.1-3.1,6.66-3.1,3.41,0,5.11,2.94,7.13,6l5.73,9c2.17,3.25,4,6.66,4,9A3.68,3.68,0,0,1,817.41,77c-2.33,0-4-1.71-6-3.41-8.67-7.28-19.68-13.17-29.28-13.17-6.2,0-10.38,2.94-10.38,7.13,0,6.35,8,7.74,20.76,10.84,17.35,4,34.24,9.3,34.24,26.66,0,16.42-15.65,25.56-35.33,25.56-10.84,0-17.35-2.79-20.29-2.79-3.88,0-4.19,4-8.06,4C759.76,131.85,758.06,128.13,756.66,125Z"/><path class="cls-1" d="M927.24,125.19c0,2.48-2.17,4-5.58,4-4,0-7.29-.47-15.34-.47-8.37,0-11.47.47-15.65.47-4,0-5.74-1.86-5.74-4.34,0-5.73,9-3.57,9-11a37.24,37.24,0,0,0-.46-5.12L890.2,85.83c-1.39-10.54-5.11-18.44-13.79-18.44-6.82,0-14.57,5.27-14.57,20.76v22.63c0,11.46,9.3,8.06,9.3,14.25,0,2-1.55,4.34-5.27,4.34-3.56,0-7.74-.46-15.65-.46-7.74,0-11.62.46-15.34.46s-5.26-2.17-5.26-4.34c0-6.19,9-2.79,9-14.25V38.42c0-9.77-10.23-5.43-10.23-12.4,0-3.41,4-5.42,14.88-10.38,10.23-4.5,12.24-5,14.1-5,3.57,0,4.49,2.94,4.49,6.82V65.07c4.81-8.22,13.64-15.34,25.88-15.34,16,0,23.24,13.63,25.41,30.37l3.72,28.82C918.71,122.71,927.24,118.53,927.24,125.19Z"/><path class="cls-1" d="M926.35,91.25c0-24.63,19.68-42.92,47.26-42.92s44.32,17.67,44.32,40.91c0,25.1-20.3,42.77-47.26,42.77C943.09,132,926.35,114.34,926.35,91.25Zm66.48,4.34c0-15.65-9-35.48-23.55-35.48-11.32,0-17.82,9.14-17.82,24.79,0,15.5,8.83,35.33,23.55,35.33C986.48,120.23,992.83,111.09,992.83,95.59Z"/><path class="cls-1" d="M1081.72,114c0,2.48-1.7,5.27-3.87,7.44-5.42,5.58-13.17,9.45-24,9.45-13.17,0-23.24-7.59-23.24-16.89,0-3.25.62-15.18.62-25.88V63.05H1023c-3.41,0-5.74-1.86-5.74-4.8,0-3.1,2-4.65,5.27-6.51,9.92-5.11,14.88-10.07,20-20.76,3.56-5.74,5-8.21,8.06-8.21,2.32,0,3.87,1.54,3.87,5.57V51.43h21.85c2.48,0,3.87,1.24,3.87,3.72a29.72,29.72,0,0,1-.46,4c-.47,2.63-1.71,3.87-4.18,3.87h-21.08v38.59c0,11.93,3.88,15,9.3,15,3.72,0,6.35-1.86,9.61-4.65,1.08-.93,2.47-2.17,4.33-2.17A3.93,3.93,0,0,1,1081.72,114Z"/><path class="cls-1" d="M1126.19,76.38c0-36.88,25.57-60.9,52.69-60.9,10.69,0,19.52,3.72,23.55,3.72,3.56,0,4.49-4.34,8.06-4.34,3.1,0,5,2.33,7.28,8.37l5.58,14.87c2.63,7,4,10.08,4,12.71a4.88,4.88,0,0,1-5,5.27c-2.48,0-4-1.4-6.05-4-11.62-15.65-20.91-24-31.91-24-17.51,0-30.69,17.82-30.69,42.77,0,27.74,15.19,44,35,44,12.25,0,22-6.51,28.36-15.19,1.55-2.17,3.25-4,6-4a4.84,4.84,0,0,1,5,5.12,15.15,15.15,0,0,1-2.32,7.12c-5.43,10.23-21.23,24.33-46.18,24.33C1151.45,132.16,1126.19,111.24,1126.19,76.38Z"/><path class="cls-1" d="M1326.07,118.53c0,4.33-7.13,11.62-19.37,11.62A18.19,18.19,0,0,1,1290,119.61a41.1,41.1,0,0,1-28.66,11.16c-17,0-27.58-9.92-27.58-23.87,0-14.1,11.62-25.25,32.54-25.25a60,60,0,0,1,17.51,2.48l-.16-1.71c-1.86-13.17-7.9-18.28-16.73-18.28-6.82,0-12.4,2.63-17.36,5.89-2.17,1.24-4.18,2.32-5.89,2.32a4.17,4.17,0,0,1-4-4.34c0-2.79,2.64-5.73,5-7.75,6.2-6,16.89-10.84,29.91-10.84,19.37,0,29.28,9.91,31.61,27l3.56,25.41c1.4,10.23,5,11.93,13.48,13.64A3.18,3.18,0,0,1,1326.07,118.53Zm-38.74-8.37-2.17-16.27a37,37,0,0,0-11.47-1.71c-9.76,0-16,4.19-16,12.09s5.74,13,13.48,13A23.41,23.41,0,0,0,1287.33,110.16Z"/><path class="cls-1" d="M1384.62,114c0,2.48-1.7,5.27-3.87,7.44-5.42,5.58-13.17,9.45-24,9.45-13.17,0-23.24-7.59-23.24-16.89,0-3.25.62-15.18.62-25.88V63.05h-8.21c-3.41,0-5.74-1.86-5.74-4.8,0-3.1,2-4.65,5.27-6.51,9.92-5.11,14.88-10.07,20-20.76,3.56-5.74,5-8.21,8.06-8.21,2.32,0,3.87,1.54,3.87,5.57V51.43h21.85c2.48,0,3.87,1.24,3.87,3.72a29.72,29.72,0,0,1-.46,4c-.47,2.63-1.71,3.87-4.19,3.87h-21.07v38.59c0,11.93,3.87,15,9.3,15,3.72,0,6.35-1.86,9.61-4.65,1.08-.93,2.47-2.17,4.33-2.17A3.93,3.93,0,0,1,1384.62,114Z"/><path class="cls-1" d="M1481.22,118.53c0,4.33-7.13,11.62-19.37,11.62a18.16,18.16,0,0,1-16.73-10.54,41.14,41.14,0,0,1-28.67,11.16c-17,0-27.58-9.92-27.58-23.87,0-14.1,11.62-25.25,32.54-25.25a59.9,59.9,0,0,1,17.51,2.48l-.16-1.71c-1.86-13.17-7.9-18.28-16.73-18.28-6.82,0-12.4,2.63-17.36,5.89-2.17,1.24-4.18,2.32-5.88,2.32a4.17,4.17,0,0,1-4-4.34c0-2.79,2.63-5.73,5-7.75,6.2-6,16.89-10.84,29.91-10.84,19.37,0,29.29,9.91,31.61,27l3.56,25.41c1.4,10.23,5,11.93,13.49,13.64A3.18,3.18,0,0,1,1481.22,118.53Zm-38.74-8.37-2.17-16.27a37,37,0,0,0-11.46-1.71c-9.77,0-16,4.19-16,12.09s5.73,13,13.48,13A23.4,23.4,0,0,0,1442.48,110.16Z"/><path class="cls-1" d="M1483.84,125c0-6.19,9-2.79,9-14.25V38.42c0-9.77-10.23-5.43-10.23-12.4,0-3.41,4-5.42,14.87-10.38,10.23-4.5,12.24-5,13.79-5,3.72,0,4.81,2.94,4.81,7.44v92.66c0,11.46,9.3,8.06,9.3,14.25,0,2-1.55,4.34-5.27,4.34-3.57,0-7.75-.46-15.65-.46s-11.62.46-15.34.46S1483.84,127.2,1483.84,125Z"/><path class="cls-1" d="M1528.17,91.25c0-24.63,19.68-42.92,47.26-42.92s44.32,17.67,44.32,40.91c0,25.1-20.3,42.77-47.26,42.77C1544.9,132,1528.17,114.34,1528.17,91.25Zm66.47,4.34c0-15.65-9-35.48-23.55-35.48-11.31,0-17.82,9.14-17.82,24.79,0,15.5,8.83,35.33,23.55,35.33C1588.29,120.23,1594.64,111.09,1594.64,95.59Z"/><path class="cls-1" d="M1715.86,131.85c0,16-17.82,27-46.48,27-29.14,0-46-7.9-46-19.37,0-6,4.5-11,12.25-14.1-5.12-2.63-8.53-6.81-8.53-12.86,0-6.2,5.12-12.7,11.78-17.2C1630.64,91.1,1626,84.59,1626,76.22c0-14.72,14.56-27.73,42.3-27.73,2.17,0,4.18.15,6.2.31,1.7-15,11.78-24.49,18.13-24.49,4.18,0,8.37,1.86,14.25,6.67,2.33,1.7,4,3.87,4,6.2s-1.55,4.49-5.11,4.49c-10.38.31-19.83,1.39-21.85,8.52,14.57,3.57,22.62,12.09,22.62,23.09,0,14.41-14.1,27.12-42.14,27.12a71.65,71.65,0,0,1-16-1.71c-1.86,1.71-3.41,3.26-3.41,4.81,0,2.63,3.1,3.71,9.91,4.33,14.26,1.09,26.35,2,35.64,2.64C1704.86,111.71,1715.86,118.53,1715.86,131.85Zm-22.16,7.9c0-3.87-3.56-6.5-11.62-7.43-10.84-1.4-22.93-2.48-35-4-3.1,2.48-5.11,6.2-5.11,9.45,0,8.06,11.16,11.31,27.58,11.31S1693.7,144.56,1693.7,139.75Zm-44.78-66c0,10.85,8.37,16.89,17.82,16.89,9.92,0,16.74-6.19,16.74-15.34,0-10.84-8.37-17-17.82-17C1655.74,58.25,1648.92,64.6,1648.92,73.74Z"/><path class="cls-1" d="M251.84,61.77H197.69a35.69,35.69,0,0,0-11.85,2.3L65.73,113c-3.1,1.26-3.68,4.23-1.24,6.52l56.06,47a17.86,17.86,0,0,0,10.64,4.23l76.44.07a9.7,9.7,0,0,0,8.38-5.71l12.48-31.76c1.24-3.13-.54-5.73-3.91-5.73h-26c-3.4,0-8,2.56-9.21,5.69L184.3,146.3a9.69,9.69,0,0,1-8.38,5.72l-9.71,0a18.93,18.93,0,0,1-10.81-4.07L120.83,122.8c-2.53-2.28-2.07-5.15,1.08-6.48L196.2,84.64A36.24,36.24,0,0,1,208,82.25l36.68-.15a8.42,8.42,0,0,0,7.57-5.49l3.48-9.1C257,64.37,255.22,61.82,251.84,61.77Zm-69.16-13.2L100.7,3.3A29.65,29.65,0,0,0,89.23.2L43.37,0a9.33,9.33,0,0,0-8.3,5.63L.35,99.35c-1.15,3.18.64,5.76,4.05,5.76l43.71,0A37.15,37.15,0,0,0,60,102.87l122.34-49C185.5,52.59,185.65,50.2,182.68,48.57ZM125.16,51.8,66.79,76.1A36.39,36.39,0,0,1,55,78.45H50.25c-3.41,0-5.2-2.59-4-5.74L62.3,29.42a9.56,9.56,0,0,1,8.3-5.8l4.56,0a30.58,30.58,0,0,1,11.61,2.83l38.62,20.15C128.41,48.15,128.3,50.5,125.16,51.8Z"/></g></g></svg>