<svg xmlns="http://www.w3.org/2000/svg" viewBox="0 0 258.85 47.19"><defs><style>.cls-1{fill:#008837;}.cls-2{fill:#f60;}.cls-3{fill:red;}</style></defs><g id="Layer_2" data-name="Layer 2"><g id="logo"><path class="cls-1" d="M132.12,20c-.25,1.52.14,2.33,1,3.77-2.22,1.11-5,2.68-5.55,6.15-.31,2,.14,3.45,1.35,4.38a8,8,0,0,0,5,1.41,9.35,9.35,0,0,0,6.29-2.06l1.34,1.89h5.84l-3.61-4.91a16.72,16.72,0,0,0,2.59-4.23l.31-.76H142l-.14.59a9.52,9.52,0,0,1-.44,1.18l-2.61-3.46c3.38-1.5,4.38-3.27,4.59-4.53.56-3.42-2.06-4.64-4.69-4.64A6.21,6.21,0,0,0,132.12,20m4.33.38v0a2.22,2.22,0,0,1-.2-1.4A1.53,1.53,0,0,1,138,17.52c1.14,0,1.57.49,1.39,1.58a3.89,3.89,0,0,1-2.08,2.5,5.46,5.46,0,0,1-.84-1.23m-4.36,9.49a5.13,5.13,0,0,1,2.41-3.66L138.06,31a5,5,0,0,1-3.65,1.72c-1.87,0-2.63-1-2.32-2.88"/><path class="cls-1" d="M71.48,14.27l.43-3H65.4l-.43,3H62.51l-.69,4.79h2.47L63.1,27.35a7.82,7.82,0,0,0,1.14,5.78,5.61,5.61,0,0,0,5.14,2.41h9l.69-4.82h-7.6c-1,0-1.37-.15-1.83-.78s-.09-2.09,0-2.69l1.17-8.19h5.28a6.44,6.44,0,0,1-.73,3.19,3.08,3.08,0,0,1-2.91,1.63l-.5,3.5h1.87c1.44,0,3.64.32,6-2.22,2-2.17,2.41-6.41,2.43-6.6.19-1.52.38-4.29.38-4.29Z"/><polygon class="cls-1" points="117.11 19.09 117.79 14.27 109.36 14.27 108.67 19.09 117.11 19.09"/><path class="cls-1" d="M108.47,29.21h-1.32l-.93,6.34h3a30.55,30.55,0,0,0,6.36-.44,13.19,13.19,0,0,0,7.59-5.31c2.68-3.54,3.28-8.93,3.41-11.42h-4.21c-.29,2.41-1.16,5.8-3.61,7.91-2.71,2.34-5.19,3.1-10.27,2.92"/><path class="cls-1" d="M102.17,14.27h-18l-.69,4.83H94.3c-.17,2-.29,2.89-.38,3.47a14.68,14.68,0,0,1-2.33,6.17C89.73,31.17,86.17,31,85,31l-.63,4.58c3.82,0,7.91.17,12.15-3.77,2.75-2.55,4-6.79,4.44-9.67s1.2-7.84,1.2-7.84"/><polygon class="cls-1" points="104.56 19.07 105.25 14.27 102.98 14.27 102.3 19.07 104.56 19.07"/><polygon class="cls-1" points="107.59 19.07 108.28 14.27 106.01 14.27 105.32 19.07 107.59 19.07"/><path class="cls-1" d="M184.09,14.23c-.51,2.31-1.56,5.57-3.86,7.56a9.7,9.7,0,0,1-6.7,2.47c-1.81,0-3,0-3,0l-.61,4.19h3.64c.8,0,2.26,0,3.69,0l-1,7.13h6.51L184,26.78a12.65,12.65,0,0,0,2.52-1.84c3.85-3.53,4.78-8.92,5.07-10.71Z"/><path class="cls-1" d="M156.47,21c-.2,4.21-.9,8.15-1.85,9.2-1.42,1.57-2.42,2-3.82,2h-.16l-.55,3.42h.73a19,19,0,0,0,3.9-.23,7.06,7.06,0,0,0,4.34-2.63c1.65-1.94,2.46-7,3-11.77Z"/><path class="cls-1" d="M151,14.27l-.69,4.79h14.26a6.55,6.55,0,0,1-.73,3.19,4.57,4.57,0,0,1-.86,1l-.58,4.14a6.66,6.66,0,0,0,5.9-2.22c2-2.17,2.4-6.41,2.42-6.6.2-1.52.39-4.29.39-4.29Z"/><path class="cls-1" d="M206.39,19.07a7.48,7.48,0,0,0,.84.08c.27,0,.56,0,.87-.08l-2.63,16.54c-.31,0-.57-.07-.84-.07s-.59.05-.86.07l1.31-8.31c-1.36-.05-2.69-.12-4-.12s-2.69.07-4.09.12l-1.32,8.31c-.31,0-.58-.07-.84-.07s-.59.05-.86.07l2.61-16.54a7.48,7.48,0,0,0,.84.08c.28,0,.55,0,.86-.08L197.14,26c1.39.06,2.73.13,4.07.13s2.7-.07,4.08-.13Z"/><path class="cls-1" d="M211,34.4c1.17.05,2.35,0,3.52-.09.62,0,1.24-.13,1.87-.22-.06.27-.14.48-.17.72s0,.49-.06.73h-7l2.61-16.47a7.05,7.05,0,0,0,.84.08c.27,0,.55,0,.86-.08Z"/><path class="cls-1" d="M222.93,20c.83,0,1.66-.09,2.45-.09,4.34,0,5.72,1.86,4.91,7-.46,2.95-1.58,5.63-3.88,6.94-1.73,1-4.08.7-5.76.58Zm-4.16,15.5h3.78c2,0,4.21,0,6.12-1.84a11.71,11.71,0,0,0,3.57-7.13c.37-2.3.11-4.55-1.11-6-1.36-1.7-3.34-1.46-5.36-1.46h-4.39Z"/><path class="cls-1" d="M246.59,22a4.4,4.4,0,0,0-4-2.34c-3.28,0-6,2.71-6.77,7.59s.75,7.76,4.55,7.76a6.21,6.21,0,0,0,3.15-.82l1-6.21c.26,0,.55.07.84.07s.55-.05.86-.07l-1.08,6.84a14.54,14.54,0,0,1-5.45,1.11c-4.89,0-6.56-3.65-5.78-8.55.9-5.67,4.62-8.64,8.92-8.64a7,7,0,0,1,4.7,1.41c-.27.6-.5,1.22-.73,1.85Z"/><path class="cls-1" d="M248.18,32.35c.51,1.55,1.23,2.51,2.73,2.51s3-1.62,3.26-3.53c.71-4.5-5.66-2.51-4.79-8a5,5,0,0,1,5-4.64A3.2,3.2,0,0,1,257,19.87a20.78,20.78,0,0,0-.83,2H256c-.2-1.31-.92-2.11-2.07-2.11A3.14,3.14,0,0,0,251,22.58c-.7,4.45,5.68,2.66,4.86,7.81-.54,3.46-3,5.51-5.65,5.51a3.71,3.71,0,0,1-2.93-1.4,14.62,14.62,0,0,0,.71-2.15Z"/><path class="cls-1" d="M257.91,32.9c.63,0,1,.68.92,1.46a1.63,1.63,0,0,1-1.38,1.44c-.63,0-1.07-.65-.95-1.44a1.67,1.67,0,0,1,1.41-1.46"/><path class="cls-2" d="M22.3,9.22H8.69V.13H33.33a31.85,31.85,0,0,0-11,9.09"/><path class="cls-1" d="M35.29,30C33.58,32.1,20.22,49,8.51,47,.18,45.62,5.17,36.47,9.64,33.69c0,0-4.59,8.57,8.33,3.84A36.54,36.54,0,0,0,33.88,25.78,11.93,11.93,0,0,0,35.29,30"/><path class="cls-1" d="M43.38,16.86c.16-.38.31-.77.47-1.18.73-1.88,1.49-4.19,1.12-5.33a1.81,1.81,0,0,0-.16-.32,2.75,2.75,0,0,0-2.43-1h0a2,2,0,0,0-.92.3L41,9.52a3.11,3.11,0,0,0-.75.69A16.26,16.26,0,0,0,38.34,13c-.31.46-.75,1.5-1.4,2.72a9.64,9.64,0,0,0-.51,1.11Z"/><path class="cls-1" d="M41.61,27.53a2.43,2.43,0,0,1-1.39-1.61,7.66,7.66,0,0,1-.49-2.48l0,0H34.92a12.76,12.76,0,0,0,.62,4.38s1.55,4.41,4.65,4.67C46.66,33,48,25.19,48,25.19c-4.13,3.42-6.37,2.34-6.37,2.34"/><path class="cls-1" d="M40.69,6c1.06,1.54,3.45,1.74,5.36.45S48.64,2.85,47.6,1.3,44.14-.44,42.24.86,39.64,4.46,40.69,6"/><path class="cls-3" d="M29.83,16.86a15,15,0,0,1,7-6.65V.13c-1.47.2-6.27,2.8-9.67,5.94a25.58,25.58,0,0,0-7.5,10.79Z"/><path class="cls-3" d="M17.59,36.48a33.8,33.8,0,0,0,10.34-6c.06-2.19.16-4.25.32-5.86,0-.41.08-.8.11-1.17H17.88a77.39,77.39,0,0,0-1.09,13.34l.8-.28"/><path class="cls-1" d="M17.88,18.61a1.87,1.87,0,0,0,.41,1.07l-.22.2a1.69,1.69,0,0,0-.68,1.33,1.33,1.33,0,0,0,1.22,1.48A1.45,1.45,0,0,0,19.75,22l.41.64h.68s-.69-1.09-.72-1.12l.48-.71-.36-.47-.45.66L19,19.79a1.71,1.71,0,0,0,.69-1.23,1,1,0,0,0-.93-1.06c-.55,0-.92.44-.92,1.11m.75.52v0a1.05,1.05,0,0,1-.22-.57.44.44,0,0,1,.39-.49c.25,0,.42.2.42.5a.94.94,0,0,1-.37.65l-.08.08,0,0-.1-.17m0,1.05.82,1.28c-.26.32-.52.61-.84.61a.83.83,0,0,1-.68-.86,1.41,1.41,0,0,1,.62-1l.07-.06a0,0,0,0,0,0,0"/><path class="cls-1" d="M.14,19.14c0,.93.38,1.12,1,1.35h0c.22.08.63.22.63.62a.55.55,0,0,1-.56.59,1.25,1.25,0,0,1-.87-.47l-.36.9a1.92,1.92,0,0,0,1.26.52,1.37,1.37,0,0,0,1-.45,1.88,1.88,0,0,0,.38-1.29,1.25,1.25,0,0,0-.9-1.3l-.26-.1C1.34,19.44,1,19.31,1,19a.5.5,0,0,1,.51-.49,1,1,0,0,1,.63.27l.34-.85a2.15,2.15,0,0,0-1.12-.36c-.75,0-1.25.64-1.25,1.6"/><polygon class="cls-1" points="3.2 17.67 3.2 22.53 5.25 22.53 5.25 21.57 4.05 21.57 4.05 20.56 5.18 20.56 5.18 19.61 4.05 19.61 4.05 18.62 5.25 18.62 5.25 17.67 3.2 17.67"/><path class="cls-1" d="M8.54,17.67l-1,3.22-1-3.22H5.64c.06.18,1.53,4.76,1.57,4.86h.67c0-.1,1.53-4.68,1.6-4.86Z"/><polygon class="cls-1" points="9.9 17.67 9.9 22.53 11.94 22.53 11.94 21.57 10.75 21.57 10.75 20.56 11.88 20.56 11.88 19.61 10.75 19.61 10.75 18.62 11.94 18.62 11.94 17.67 9.9 17.67"/><path class="cls-1" d="M15.45,17.67v3.25l-.15-.23s-1.76-3-1.81-3h-.88v4.86h.85V19.26l.15.23s1.77,3,1.81,3h.89V17.67Z"/><polygon class="cls-1" points="27.44 17.67 27.44 19.6 25.85 19.6 25.85 17.67 24.99 17.67 24.99 22.53 25.85 22.53 25.85 20.47 27.44 20.47 27.44 22.53 28.29 22.53 28.29 17.67 27.44 17.67"/><path class="cls-1" d="M28.8,20c0,1.56.87,2.69,2.05,2.69s2.06-1.13,2.06-2.69a2.31,2.31,0,0,0-2.06-2.5A2.31,2.31,0,0,0,28.8,20m.89,0a1.32,1.32,0,0,1,1.16-1.4A1.33,1.33,0,0,1,32,20c0,.88-.52,1.57-1.17,1.57s-1.16-.69-1.16-1.57"/><polygon class="cls-1" points="33.42 17.67 33.42 22.53 35.47 22.53 35.47 21.57 34.28 21.57 34.28 17.67 33.42 17.67"/><path class="cls-1" d="M36,17.67v4.86H37.3a2.21,2.21,0,0,0,1.88-2.43,2.21,2.21,0,0,0-1.88-2.43Zm.85,3.83V18.62h.32c.71,0,1.17.58,1.17,1.48,0,1.08-.62,1.47-1.19,1.47h-.3Z"/><rect class="cls-1" x="39.69" y="17.67" width="0.85" height="4.86"/><path class="cls-1" d="M44.19,17.67v3.25l-.14-.23s-1.77-3-1.82-3h-.89v4.86h.86V19.26l.15.23s1.77,3,1.81,3h.89V17.67Z"/><path class="cls-1" d="M45.55,20.13c0,1.51.81,2.56,2,2.56a1.67,1.67,0,0,0,1.52-.94,3.89,3.89,0,0,0,.39-1.87H47.6v.87h.82v.09a.89.89,0,0,1-.88.93c-.72,0-1.09-.82-1.09-1.64s.37-1.65,1.07-1.65a1,1,0,0,1,.87.76c.12-.06.72-.4.82-.44a1.72,1.72,0,0,0-1.64-1.3c-1.21,0-2,1.06-2,2.63"/><path class="cls-1" d="M50,19.14c0,.93.37,1.12,1,1.35h0c.21.08.62.22.62.62a.55.55,0,0,1-.56.59,1.21,1.21,0,0,1-.86-.47c-.07.16-.34.82-.37.9a1.9,1.9,0,0,0,1.26.52,1.37,1.37,0,0,0,1-.45,1.88,1.88,0,0,0,.38-1.29,1.25,1.25,0,0,0-.9-1.3l-.26-.1c-.18-.08-.49-.21-.49-.55a.5.5,0,0,1,.5-.49,1,1,0,0,1,.64.27c.06-.15.3-.76.33-.85a2.09,2.09,0,0,0-1.11-.36c-.75,0-1.25.64-1.25,1.6"/><rect class="cls-1" x="21.82" y="19.21" width="1" height="3.4"/><path class="cls-1" d="M22.89,18.08a.59.59,0,1,1-.58-.58.59.59,0,0,1,.58.58"/></g></g></svg>