<svg width="251" height="82" viewBox="0 0 251 82" fill="none" xmlns="http://www.w3.org/2000/svg">
<g clip-path="url(#clip0)">
<path d="M102.531 62.4363C102.608 62.2101 102.729 62.0012 102.887 61.8212C103.044 61.6427 103.239 61.501 103.458 61.4062C103.698 61.3032 103.958 61.2521 104.22 61.2561C104.482 61.2515 104.742 61.3027 104.982 61.4062C105.2 61.5011 105.394 61.6428 105.55 61.8212C105.709 62.0004 105.83 62.2096 105.906 62.4363C105.991 62.6835 106.032 62.9432 106.03 63.2044C106.032 63.4597 105.99 63.7136 105.906 63.9548C105.829 64.1787 105.708 64.3849 105.55 64.561C105.392 64.7359 105.199 64.8745 104.982 64.9672C104.741 65.0684 104.482 65.1185 104.22 65.1143C103.959 65.1179 103.699 65.0678 103.458 64.9672C103.24 64.8745 103.046 64.736 102.887 64.561C102.73 64.3843 102.609 64.1783 102.531 63.9548C102.447 63.7136 102.405 63.4597 102.407 63.2044C102.405 62.9432 102.446 62.6835 102.531 62.4363V62.4363ZM103.272 63.6546C103.305 63.7956 103.364 63.9293 103.446 64.049C103.523 64.1709 103.629 64.2719 103.755 64.3433C103.898 64.4178 104.058 64.4542 104.22 64.4492C104.381 64.4539 104.541 64.4174 104.685 64.3433C104.805 64.27 104.906 64.1691 104.979 64.049C105.06 63.9288 105.119 63.7953 105.153 63.6546C105.188 63.5072 105.206 63.356 105.206 63.2044C105.206 63.0459 105.188 62.8879 105.153 62.7335C105.118 62.5893 105.059 62.4521 104.979 62.3274C104.906 62.2072 104.805 62.1063 104.685 62.0331C104.541 61.9589 104.381 61.9225 104.22 61.9271C104.058 61.9221 103.898 61.9586 103.755 62.0331C103.629 62.1044 103.523 62.2055 103.446 62.3274C103.365 62.4514 103.306 62.5889 103.272 62.7335C103.236 62.8878 103.217 63.0458 103.216 63.2044C103.217 63.3561 103.236 63.5073 103.272 63.6546V63.6546Z" fill="#151515"/>
<path d="M108.219 61.3446C108.42 61.3404 108.62 61.3743 108.808 61.4446C108.957 61.504 109.092 61.5954 109.202 61.7125C109.303 61.8201 109.378 61.9488 109.423 62.0891C109.519 62.3756 109.519 62.6856 109.423 62.972C109.379 63.1136 109.304 63.2433 109.202 63.3517C109.092 63.4678 108.957 63.5582 108.808 63.6165C108.621 63.6893 108.421 63.7243 108.219 63.7195H107.366V65.0409H106.557V61.3446H108.219ZM107.999 63.0897C108.089 63.089 108.18 63.0821 108.269 63.0691C108.35 63.057 108.427 63.029 108.496 62.9867C108.563 62.9468 108.617 62.8886 108.652 62.819C108.698 62.7281 108.718 62.6263 108.711 62.5247C108.717 62.4232 108.697 62.3218 108.652 62.2304C108.615 62.162 108.562 62.1042 108.496 62.0627C108.426 62.0227 108.349 61.9958 108.269 61.9832C108.18 61.9703 108.089 61.9634 107.999 61.9626H107.366V63.0897H107.999Z" fill="#151515"/>
<path d="M112.669 61.3447V62.0275H110.724V62.8162H112.51V63.446H110.724V64.3495H112.707V65.0322H109.912V61.3447H112.669Z" fill="#151515"/>
<path d="M114.067 61.3447L115.603 63.8168V61.3447H116.363V65.0322H115.562L114.029 62.5631V65.0322H113.261V61.3447H114.067Z" fill="#151515"/>
<path d="M119.332 61.3447V65.0322H118.523V61.3447H119.332Z" fill="#151515"/>
<path d="M120.839 61.3447L122.378 63.8168V61.3447H123.137V65.0322H122.337L120.803 62.5631V65.0322H120.032V61.3447H120.839Z" fill="#151515"/>
<path d="M124.653 61.3447L126.192 63.8168V61.3447H126.951V65.0322H126.151L124.617 62.5631V65.0322H123.846V61.3447H124.653Z" fill="#151515"/>
<path d="M127.61 62.4364C127.688 62.2102 127.809 62.0013 127.966 61.8213C128.125 61.6435 128.319 61.5019 128.537 61.4064C129.027 61.2063 129.575 61.2063 130.065 61.4064C130.282 61.502 130.476 61.6435 130.633 61.8213C130.789 62.0021 130.91 62.2107 130.989 62.4364C131.073 62.6836 131.115 62.9433 131.112 63.2045C131.115 63.4599 131.073 63.7137 130.989 63.9549C130.91 64.1779 130.789 64.3837 130.633 64.5612C130.476 64.7347 130.285 64.8731 130.071 64.9673C129.58 65.163 129.034 65.163 128.543 64.9673C128.324 64.8746 128.128 64.7361 127.966 64.5612C127.809 64.3844 127.688 64.1784 127.61 63.9549C127.527 63.7137 127.485 63.4599 127.487 63.2045C127.484 62.9433 127.526 62.6836 127.61 62.4364ZM128.352 63.6548C128.385 63.7958 128.444 63.9295 128.526 64.0491C128.599 64.1693 128.7 64.2702 128.82 64.3434C128.965 64.4131 129.124 64.4493 129.285 64.4493C129.446 64.4493 129.605 64.4131 129.75 64.3434C129.875 64.2721 129.982 64.171 130.059 64.0491C130.141 63.9295 130.199 63.7958 130.233 63.6548C130.268 63.5073 130.286 63.3562 130.286 63.2045C130.286 63.046 130.268 62.8881 130.233 62.7336C130.199 62.5891 130.14 62.4516 130.059 62.3275C129.982 62.2056 129.875 62.1046 129.75 62.0332C129.605 61.9635 129.446 61.9274 129.285 61.9274C129.124 61.9274 128.965 61.9635 128.82 62.0332C128.7 62.1065 128.599 62.2074 128.526 62.3275C128.444 62.4516 128.385 62.5891 128.352 62.7336C128.316 62.8881 128.299 63.046 128.299 63.2045C128.299 63.3562 128.317 63.5073 128.352 63.6548V63.6548Z" fill="#151515"/>
<path d="M132.331 65.0322L131.139 61.3447H131.969L132.79 63.9374L133.62 61.3447H134.456L133.234 65.0322H132.331Z" fill="#151515"/>
<path d="M136.374 61.3447L137.752 65.0322H136.91L136.63 64.2111H135.253L134.959 65.0322H134.141L135.536 61.3447H136.374ZM136.419 63.6078L135.954 62.2541L135.474 63.6078H136.419Z" fill="#151515"/>
<path d="M137.375 62.0275V61.3447H140.394V62.0275H139.288V65.0322H138.479V62.0275H137.375Z" fill="#151515"/>
<path d="M141.586 61.3447V65.0322H140.774V61.3447H141.586Z" fill="#151515"/>
<path d="M142.243 62.4364C142.321 62.2107 142.442 62.0021 142.599 61.8213C142.757 61.6435 142.952 61.5019 143.17 61.4064C143.659 61.2063 144.208 61.2063 144.697 61.4064C144.914 61.502 145.108 61.6435 145.265 61.8213C145.422 62.0013 145.543 62.2102 145.621 62.4364C145.705 62.6836 145.747 62.9433 145.745 63.2045C145.747 63.4599 145.705 63.7137 145.621 63.9549C145.543 64.1784 145.422 64.3844 145.265 64.5612C145.107 64.7354 144.913 64.8738 144.697 64.9673C144.207 65.163 143.66 65.163 143.17 64.9673C142.953 64.8739 142.758 64.7354 142.599 64.5612C142.442 64.3837 142.322 64.1779 142.243 63.9549C142.159 63.7137 142.117 63.4599 142.119 63.2045C142.116 62.9433 142.158 62.6836 142.243 62.4364V62.4364ZM142.984 63.6548C143.017 63.7958 143.076 63.9295 143.158 64.0491C143.235 64.171 143.341 64.2721 143.467 64.3434C143.612 64.4131 143.771 64.4493 143.932 64.4493C144.093 64.4493 144.252 64.4131 144.397 64.3434C144.517 64.2702 144.618 64.1693 144.691 64.0491C144.773 63.9295 144.832 63.7958 144.865 63.6548C144.9 63.5073 144.918 63.3562 144.918 63.2045C144.918 63.046 144.9 62.8881 144.865 62.7336C144.831 62.5891 144.773 62.4516 144.691 62.3275C144.618 62.2074 144.517 62.1065 144.397 62.0332C144.252 61.9635 144.093 61.9274 143.932 61.9274C143.771 61.9274 143.612 61.9635 143.467 62.0332C143.341 62.1046 143.235 62.2056 143.158 62.3275C143.076 62.4516 143.018 62.5891 142.984 62.7336C142.949 62.8881 142.931 63.046 142.931 63.2045C142.931 63.3562 142.949 63.5073 142.984 63.6548V63.6548Z" fill="#151515"/>
<path d="M147.075 61.3447L148.614 63.8168V61.3447H149.373V65.0322H148.564L147.031 62.5631V65.0322H146.257V61.3447H147.075Z" fill="#151515"/>
<path d="M113.932 67.2833C114.132 67.2777 114.332 67.3117 114.52 67.3834C114.669 67.4421 114.804 67.5324 114.915 67.6482C115.015 67.7562 115.092 67.8847 115.138 68.0249C115.183 68.1668 115.206 68.3147 115.206 68.4634C115.206 68.6112 115.183 68.7581 115.138 68.899C115.092 69.0376 115.016 69.1642 114.915 69.2698C114.805 69.3875 114.67 69.479 114.52 69.5376C114.332 69.6093 114.132 69.6433 113.932 69.6377H113.081V70.959H112.269V67.2833H113.932ZM113.711 69.0167C113.801 69.0174 113.89 69.0105 113.979 68.9961C114.058 68.9835 114.135 68.9566 114.205 68.9166C114.271 68.8744 114.326 68.8168 114.364 68.7489C114.408 68.6572 114.428 68.556 114.423 68.4546C114.429 68.3531 114.409 68.2517 114.364 68.1603C114.327 68.0912 114.272 68.0333 114.205 67.9926C114.136 67.9501 114.059 67.923 113.979 67.9131C113.89 67.8987 113.801 67.8918 113.711 67.8925H113.081V68.9961L113.711 69.0167Z" fill="#151515"/>
<path d="M116.436 67.2837V70.2855H118.231V70.9682H115.627V67.2837H116.436Z" fill="#151515"/>
<path d="M120.653 67.2837L122.031 70.9682H121.201L120.906 70.1472H119.544L119.25 70.9682H118.437L119.832 67.2837H120.653ZM120.697 69.5439L120.233 68.1901L119.77 69.5439H120.697Z" fill="#151515"/>
<path d="M121.666 67.9635V67.2837H124.685V67.9635H123.579V70.9682H122.769V67.9635H121.666Z" fill="#151515"/>
<path d="M127.657 67.2837V67.9635H125.892V68.817H127.422V69.4467H125.877V70.9682H125.068V67.2837H127.657Z" fill="#151515"/>
<path d="M127.984 68.3871C128.062 68.16 128.183 67.9502 128.34 67.7691C128.499 67.5921 128.693 67.4516 128.911 67.357C129.401 67.157 129.949 67.157 130.439 67.357C130.655 67.4516 130.849 67.5922 131.006 67.7691C131.164 67.9502 131.285 68.16 131.363 68.3871C131.447 68.6333 131.488 68.892 131.486 69.1522C131.488 69.4076 131.446 69.6615 131.363 69.9027C131.285 70.1262 131.164 70.3322 131.006 70.5089C130.849 70.684 130.655 70.8226 130.439 70.9151C129.948 71.1108 129.401 71.1108 128.911 70.9151C128.694 70.8227 128.499 70.6841 128.34 70.5089C128.183 70.3322 128.062 70.1262 127.984 69.9027C127.9 69.6615 127.858 69.4076 127.861 69.1522C127.858 68.892 127.9 68.6333 127.984 68.3871V68.3871ZM128.726 69.6055C128.76 69.7462 128.819 69.8797 128.899 69.9998C128.974 70.1146 129.075 70.2103 129.194 70.2794C129.339 70.3491 129.498 70.3852 129.659 70.3852C129.82 70.3852 129.979 70.3491 130.124 70.2794C130.242 70.2103 130.343 70.1146 130.418 69.9998C130.499 69.8797 130.557 69.7462 130.592 69.6055C130.627 69.457 130.645 69.3049 130.645 69.1522C130.645 68.9938 130.627 68.8358 130.592 68.6814C130.559 68.5375 130.5 68.4009 130.418 68.2782C130.345 68.158 130.244 68.0571 130.124 67.9839C129.979 67.9142 129.82 67.878 129.659 67.878C129.498 67.878 129.339 67.9142 129.194 67.9839C129.074 68.0571 128.973 68.158 128.899 68.2782C128.817 68.4009 128.759 68.5375 128.726 68.6814C128.69 68.8358 128.672 68.9938 128.673 69.1522C128.673 69.3009 128.691 69.4491 128.726 69.5937V69.6055Z" fill="#151515"/>
<path d="M133.999 67.2834C134.151 67.2809 134.302 67.3079 134.444 67.3628C134.571 67.4124 134.687 67.4864 134.785 67.5806C134.879 67.6725 134.953 67.7827 135.003 67.9043C135.053 68.0296 135.078 68.1636 135.077 68.2987C135.083 68.4948 135.036 68.6889 134.941 68.8608C134.838 69.0292 134.68 69.1571 134.494 69.2227V69.2227C134.585 69.2446 134.67 69.288 134.741 69.3493C134.807 69.4056 134.862 69.4734 134.903 69.5494C134.945 69.6297 134.975 69.7161 134.991 69.8054C135.011 69.8975 135.024 69.991 135.029 70.085C135.029 70.1409 135.029 70.2116 135.029 70.291C135.029 70.3705 135.029 70.4499 135.047 70.5323C135.056 70.6116 135.07 70.6903 135.088 70.7678C135.105 70.8351 135.134 70.8989 135.174 70.9561H134.364C134.314 70.8222 134.287 70.6811 134.282 70.5382C134.282 70.3764 134.256 70.2204 134.235 70.0732C134.222 69.9169 134.16 69.7686 134.058 69.6495C133.935 69.5497 133.778 69.5021 133.62 69.517H132.811V70.9561H131.998V67.2834H133.999ZM133.705 68.949C133.855 68.9605 134.004 68.9165 134.123 68.8254C134.174 68.7724 134.213 68.7089 134.238 68.6393C134.262 68.5697 134.271 68.4957 134.264 68.4223C134.271 68.3511 134.262 68.2793 134.237 68.2121C134.213 68.145 134.174 68.084 134.123 68.0338C134.003 67.9438 133.855 67.9008 133.705 67.9131H132.822V68.949H133.705Z" fill="#151515"/>
<path d="M136.839 67.2837L137.702 69.8176L138.517 67.2837H139.656V70.9682H138.899V68.3549L138.017 70.9682H137.393L136.48 68.3873V70.9741H135.721V67.2837H136.839Z" fill="#151515"/>
<path d="M102.407 11V58.0456H149.453V11H102.407ZM112.781 21.2002H118.723C121.201 21.2002 124.609 23.531 124.609 27.6746C124.623 31.4327 121.783 33.9548 118.396 33.9548H116.201V31.3945H118.396C120.327 31.3945 121.928 29.5022 121.928 27.6629C121.928 25.1319 120.127 23.7488 117.996 23.7488H115.477V33.9548H112.781V21.2002ZM118.902 48.0632H116.215C114.155 48.0632 112.781 47.042 112.781 44.2374V35.2733H115.486V43.8607C115.486 45.0379 115.959 45.3587 116.875 45.3587H118.902V48.0632ZM129.297 48.0632H126.445V43.4605H123.667V40.9737H126.445V39.2521C126.445 38.3045 126.007 37.5364 124.679 37.5364C123.352 37.5364 122.943 38.3045 122.943 39.2521V48.0603H120.106V39.7318C120.106 37.5011 121.366 35.0526 124.691 35.0526C128.017 35.0526 129.297 37.5011 129.297 39.7318V48.0632ZM135.589 48.0632H133.726V45.5058H135.168C135.936 45.5058 136.374 44.9172 136.374 44.0815C136.374 42.9837 135.736 42.61 134.985 42.61H133.726V40.3704H134.4C135.315 40.3704 135.901 39.9319 135.901 39.0373C135.901 38.2339 135.406 37.6129 134.547 37.6129C133.688 37.6129 133.049 38.125 133.049 39.3787V48.075H130.492V39.6229C130.492 36.3857 132.207 35.0526 134.747 35.0526C136.904 35.0526 138.602 36.5888 138.602 38.7812C138.615 39.2643 138.504 39.7426 138.281 40.171C138.057 40.5994 137.728 40.9638 137.325 41.2298C138.532 41.8183 139.091 42.9955 139.091 44.3169C139.079 46.4387 137.722 48.0632 135.589 48.0632ZM139.079 28.119C139.079 30.6293 136.895 34.1638 132.605 34.1638C128.799 34.1638 126.104 31.1591 126.104 27.5716C126.104 23.9842 128.799 20.9824 132.605 20.9824C134.538 20.9332 136.414 21.6455 137.828 22.9659L136.118 24.9318C135.692 24.4886 135.18 24.136 134.613 23.8953C134.047 23.6546 133.438 23.5307 132.822 23.531C130.527 23.531 128.944 25.3703 128.944 27.4981C128.944 29.6258 130.527 31.4681 132.822 31.4681C134.406 31.4681 135.971 30.2114 136.227 28.7547H132.719V26.4003H139.091L139.079 28.119Z" fill="#151515"/>
</g>
<defs>
<clipPath id="clip0">
<rect width="47.0457" height="60.0505" fill="white" transform="translate(102.407 11)"/>
</clipPath>
</defs>
</svg>
