<svg xmlns="http://www.w3.org/2000/svg" viewBox="0 0 400.09 129.82"><defs><style>.cls-1{fill:#262626;}.cls-2{fill:#8bc461;}.cls-3{fill:none;}.cls-4{fill:#4c4948;}.cls-5{fill:#ea6000;}</style></defs><g id="Layer_2" data-name="Layer 2"><g id="logo"><path d="M263.08,97.7h2.33a.4.4,0,1,1,0,.79h-2.33v.16a15.38,15.38,0,0,0,2.24,3.29c.1.13.15.2.15.3a.49.49,0,0,1-.44.48c-.17,0-.28-.12-.45-.36a25.72,25.72,0,0,1-1.5-2.29v7.63a.37.37,0,0,1-.42.43c-.34,0-.4-.2-.4-.43v-7.44a17.62,17.62,0,0,1-2.08,3.65c-.43.59-.51.65-.68.65A.54.54,0,0,1,259,104a.55.55,0,0,1,.21-.4,12.93,12.93,0,0,0,3-5.14h-2.65a.4.4,0,1,1,0-.79h2.73V95.17a20.84,20.84,0,0,1-2.58.25.39.39,0,0,1-.45-.42c0-.36.25-.36.41-.37a17.55,17.55,0,0,0,4.27-.6c.19,0,1-.32,1.12-.32a.39.39,0,0,1,.38.42c0,.2-.09.29-.3.37a14.9,14.9,0,0,1-2,.53Zm8.85,7.8a30.9,30.9,0,0,0-1.78-4.43.73.73,0,0,1-.11-.35c0-.21.25-.39.5-.39s.3.1.72,1a30,30,0,0,1,2.15,6.3c0,.44-.48.44-.5.44a.34.34,0,0,1-.37-.28c-.07-.22-.33-1.28-.39-1.51-1.72.25-3.43.48-5.15.68l-2.34.25c-.37,0-.42-.37-.42-.48,0-.38.15-.39,1.18-.5a49.77,49.77,0,0,0,1.56-6c.66-3.15.8-4.24,1-6,0-.25.11-.48.47-.48a.42.42,0,0,1,.46.42,83,83,0,0,1-2.58,12.07C268.22,106,270.51,105.67,271.93,105.5Z"/><path d="M280.13,94.45c.05-.34.19-.5.47-.5s.53.24.53.49-.19,1.37-.25,1.79c2.51-.06,3-.06,5.3-.17l1.23-.06a.41.41,0,0,1,.47.45c0,.42-.23.44-.59.45-1.2.07-2.53.13-3.64.16l-2.94.06a49.94,49.94,0,0,1-2.37,8.22,16.61,16.61,0,0,1-.85,1.86.52.52,0,0,1-.42.22.46.46,0,0,1-.48-.43,1.74,1.74,0,0,1,.28-.73,38.07,38.07,0,0,0,2.87-9.12c-.42,0-2.29,0-2.56,0s-.48,0-.48-.43a.41.41,0,0,1,.48-.46l1.33,0c.2,0,.82,0,1.39,0C279.93,96,280.08,94.72,280.13,94.45Zm9.36,12.87a24,24,0,0,1-2.75.14c-3.85,0-5.19-.79-5.19-2.34,0-.81.48-1.54.92-1.54.15,0,.45.12.45.39a.67.67,0,0,1-.14.4,1.37,1.37,0,0,0-.3.8c0,1.09,1.63,1.4,3.73,1.4.72,0,1.69,0,2.54-.12.13,0,.74-.1.85-.1a.43.43,0,0,1,.5.46C290.1,107.23,289.75,107.31,289.49,107.32Zm-.36-6.77c-.16,0-.84-.09-1-.11a13.78,13.78,0,0,0-1.42-.07,19.29,19.29,0,0,0-3.2.28c-.09,0-.59.11-.66.11a.43.43,0,0,1-.42-.44c0-.36.36-.45.64-.52a20.81,20.81,0,0,1,3.84-.32,20.49,20.49,0,0,1,2.25.12c.45.06.45.27.45.53S289.5,100.55,289.13,100.55Z"/><path d="M296.07,100.93a8.74,8.74,0,0,1,4.84-1.38c1.35,0,5,.3,5,3.67a3.65,3.65,0,0,1-2,3.28,10.51,10.51,0,0,1-4.86.9,20.54,20.54,0,0,1-3.83-.37.52.52,0,0,1-.39-.52c0-.23.1-.4.38-.4l.93.17a18.19,18.19,0,0,0,3,.25c1.35,0,5.73,0,5.73-3.29,0-2.48-2.6-2.86-4.08-2.86a7.6,7.6,0,0,0-5.26,1.81c-.31.34-.39.44-.62.44a.43.43,0,0,1-.47-.42,1,1,0,0,1,.13-.43A19.54,19.54,0,0,0,296.73,97c-.78,0-1.31,0-3,0-.44,0-.74,0-.74-.43s.31-.44.53-.44l1.77,0,1.7,0a17.46,17.46,0,0,0,.39-1.79c0-.2.07-.45.49-.45.27,0,.5.08.5.45a15.78,15.78,0,0,1-.4,1.78c1.71,0,3.45-.06,6.41-.17.23,0,1.28-.07,1.5-.07a.44.44,0,1,1,0,.88c-2.28,0-5.92.15-8.18.22A19.48,19.48,0,0,1,296.07,100.93Z"/><path d="M315.62,103.38c-.66,1.62-1.39,2.69-2.66,2.69-1.46,0-2.87-1.63-2.87-4.35,0-4.18,3-7,7.26-7,5,0,6.52,3.37,6.52,6.23a5.79,5.79,0,0,1-3.87,5.8,10.72,10.72,0,0,1-2.73.59.47.47,0,0,1-.52-.53c0-.34.16-.36.75-.4a7.53,7.53,0,0,0,2.92-.85A5.08,5.08,0,0,0,322.9,101c0-1.62-.69-5.4-5.43-5.41A29.37,29.37,0,0,1,315.62,103.38ZM311,101.75c0,2.09,1,3.4,1.95,3.4.79,0,1.36-1,1.86-2.21a27.58,27.58,0,0,0,1.7-7.36A5.9,5.9,0,0,0,311,101.75Z"/><path d="M329.6,106.6c0,1.27-.56,1.27-1.86,1.27-.4,0-.71,0-.71-.45s.28-.43.43-.43a6.17,6.17,0,0,0,.86,0c.31,0,.44-.25.44-.57v-4.14a11.45,11.45,0,0,1-1.7.55.42.42,0,0,1-.38-.45A.37.37,0,0,1,327,102c.5-.17,1.3-.42,1.8-.57V97.56h-1.44c-.11,0-.44,0-.44-.38s.33-.37.44-.37h1.44V94.08c0-.19,0-.45.42-.45s.42.15.42.45v2.73H331c.11,0,.43,0,.43.37a.36.36,0,0,1-.43.38H329.6v3.59l1-.33a5.43,5.43,0,0,1,.53-.17.34.34,0,0,1,.34.37.39.39,0,0,1-.24.36c-.24.12-1,.37-1.61.61Zm5.66-5.47a7.22,7.22,0,0,1-2.31,5.74,4.76,4.76,0,0,1-1.59,1.11.48.48,0,0,1-.45-.46c0-.17.11-.26.25-.35a6.26,6.26,0,0,0,3.18-4.87,16.78,16.78,0,0,1-3.06,1.62.41.41,0,0,1-.39-.44c0-.21,0-.24.58-.49a26,26,0,0,0,2.93-1.61V94.05c0-.28.1-.45.42-.45s.44.23.44.45Zm-2.81-5.26a13.3,13.3,0,0,1,1.36,2.76.49.49,0,0,1-.48.43c-.24,0-.27-.08-.52-.68a15.32,15.32,0,0,0-1.21-2.29.47.47,0,0,1-.11-.28.44.44,0,0,1,.4-.39C332.13,95.37,332.22,95.5,332.45,95.87Zm5.26,10.52c0,.59.39.59.69.59s1.32,0,1.43,0c.36-.07.41-.26.5-1.07s.11-1,.44-1a.43.43,0,0,1,.48.49,6.19,6.19,0,0,1-.41,2.06c-.26.4-.54.4-2.57.4-.86,0-1.4-.11-1.4-1.28V94.05c0-.19,0-.45.42-.45s.42.17.42.45v6.21a.41.41,0,0,1,.33-.18c.17,0,.23,0,1.39,1.22.28.3.82.87,1.54,1.75a.57.57,0,0,1,.17.36.53.53,0,0,1-.51.48c-.19,0-.22,0-.6-.53a24.41,24.41,0,0,0-1.62-1.9c-.22-.25-.67-.69-.7-.74ZM341,95.72a11.8,11.8,0,0,1-1.37,2.37c-.56.79-.67.86-.83.86a.46.46,0,0,1-.47-.44c0-.13,0-.14.42-.69a13.85,13.85,0,0,0,1.36-2.2c.13-.25.22-.32.44-.32A.47.47,0,0,1,341,95.72Z"/><path d="M348.78,102.88v1.57h3.34a.37.37,0,0,1,.43.39.37.37,0,0,1-.43.41h-3.34v2.37c0,.12,0,.45-.39.45a.38.38,0,0,1-.41-.45v-2.37h-3.3c-.14,0-.45,0-.45-.39a.39.39,0,0,1,.45-.41H348v-1.57h-1.91c-1,0-1.27-.35-1.27-1.27V97.9c0-.93.33-1.26,1.27-1.26h3.82a18.09,18.09,0,0,0,1.39-2.09c.32-.61.35-.67.59-.67s.48.12.48.37a9.28,9.28,0,0,1-1.48,2.39c.89,0,1.15.39,1.15,1.26v3.71c0,.94-.32,1.27-1.26,1.27Zm-3.18-8.36a6,6,0,0,1,.72,1.4c0,.28-.32.45-.53.45s-.25-.06-.52-.62c-.17-.34-.22-.42-.64-1.16a.45.45,0,0,1-.08-.25c0-.34.38-.42.46-.42S345.32,94.06,345.6,94.52ZM348,99.37v-2h-1.77a.52.52,0,0,0-.6.59v1.42Zm0,.71h-2.37v1.46a.52.52,0,0,0,.6.59H348Zm.46-5.63a10.66,10.66,0,0,1,.57,1.44c0,.23-.25.37-.45.37s-.28-.07-.59-.82c-.13-.33-.38-.85-.5-1.17a1,1,0,0,1-.05-.17c0-.25.27-.36.42-.36S348.14,93.81,348.44,94.45Zm.34,4.92h2.43V98c0-.39-.17-.59-.59-.59h-1.84Zm0,.71v2h1.84a.51.51,0,0,0,.59-.59v-1.46ZM352.91,99c-.14,0-.48,0-.48-.41,0-.26.16-.39.42-.4l1.42-.11c0-.92-.11-3-.11-3.5s0-.81.47-.81.42.3.42.45,0,1.08,0,1.25c0,.53,0,.73.08,2.54l3.07-.23a.38.38,0,0,1,.49.39.4.4,0,0,1-.42.4l-3.09.24a40.34,40.34,0,0,0,.53,4.72,13.88,13.88,0,0,0,1.72-3,.39.39,0,0,1,.37-.33c.2,0,.48.16.48.39a11.32,11.32,0,0,1-2.34,4c.41,1.4,1.16,2.49,1.61,2.49s.39-.6.55-1.77c0-.22.06-.49.34-.49a.51.51,0,0,1,.51.46,10,10,0,0,1-.29,1.62c-.08.32-.3,1.2-1.06,1.2s-1.59-.75-2.31-2.82a11.86,11.86,0,0,1-3.48,2.57.49.49,0,0,1-.45-.47c0-.14.09-.23.25-.33a13.44,13.44,0,0,0,3.43-2.65,27.39,27.39,0,0,1-.7-5.47Zm4.64-3.68c.21.24.84,1,.84,1.2a.48.48,0,0,1-.47.43c-.17,0-.19,0-.61-.59-.23-.31-.67-.83-1-1.17s-.33-.34-.33-.47a.45.45,0,0,1,.44-.4C356.7,94.27,357.25,94.91,357.55,95.27Z"/><path d="M363.07,96.25c-.19,0-1,.12-1.2.12s-.47-.17-.47-.54.26-.44,1.15-.49c4.64-.22,9.1-.43,11.27-.43.85,0,1.09,0,1.09.46s-.19.5-.61.5a6.9,6.9,0,0,0-3.14.41,11.29,11.29,0,0,0-3.6,2.42,5.43,5.43,0,0,0-1.82,3.91c0,3.76,4,3.76,6.89,3.76.2,0,.64,0,.64.45s-.45.56-.73.56c-1.94,0-4.62-.2-6.12-1.26a4.1,4.1,0,0,1-1.68-3.4,7,7,0,0,1,2.87-5.29,13.47,13.47,0,0,1,2.49-1.57C368.23,95.89,365.08,96.11,363.07,96.25Zm8.47,2.26a.49.49,0,0,1-.05-.19.4.4,0,0,1,.42-.37c.17,0,.27,0,.63.56a6,6,0,0,1,.79,1.51c0,.3-.33.41-.5.41a.3.3,0,0,1-.28-.14c-.14-.22-.36-.69-.48-.91S371.68,98.77,371.54,98.51Zm1.84-.53a.7.7,0,0,1-.16-.39.39.39,0,0,1,.41-.36c.19,0,.29.06.72.67a4.42,4.42,0,0,1,.7,1.31c0,.25-.28.39-.49.39a.38.38,0,0,1-.34-.22c-.12-.25-.39-.7-.42-.76Z"/><path d="M380.4,107.51c-.31,0-.42-.16-.76-.64a20.17,20.17,0,0,0-2.59-2.87.57.57,0,0,1-.21-.39.64.64,0,0,1,.61-.58c.41,0,1.22.86,1.63,1.3,1,1.06,2,2.15,2,2.54A.68.68,0,0,1,380.4,107.51Z"/><path d="M259.32,119.88c-.14,0-.44,0-.44-.39s.21-.42.44-.42h6.35v-2.92h-5.38c-.16,0-.44,0-.44-.41s.2-.4.44-.4h5.38v-2c0-.19,0-.46.45-.46s.45.25.45.46v2H272c.14,0,.44,0,.44.4s-.28.41-.44.41h-5.43v2.92H273c.19,0,.43,0,.43.4s-.24.41-.43.41h-6.05a14.15,14.15,0,0,0,6.14,5.47c.2.1.36.19.36.42a.52.52,0,0,1-.47.53,13.54,13.54,0,0,1-3.16-2,12.63,12.63,0,0,1-3.22-3.65V127c0,.15,0,.46-.43.46s-.47-.16-.47-.46v-6.23a15.81,15.81,0,0,1-6.3,5.6.5.5,0,0,1-.44-.49.45.45,0,0,1,.31-.4,16.28,16.28,0,0,0,6.12-5.57Z"/><path d="M283,113.41a.4.4,0,0,1,.44-.46c.41,0,.45.25.45.46v1.29h5.81c.18,0,.42,0,.42.41s-.21.4-.42.4h-5.81v4.34h6.38c.16,0,.44,0,.44.39s-.25.4-.44.4h-5.88a15.67,15.67,0,0,0,6,4.79c.23.11.34.17.34.38s-.22.59-.47.59a6.57,6.57,0,0,1-1.81-1,15.33,15.33,0,0,1-4.6-4.32v5.82c0,.2,0,.45-.43.45s-.46-.2-.46-.45v-5.82c-1.82,2.71-5.69,5.29-6.3,5.29-.29,0-.45-.44-.45-.55s.19-.31.31-.37a17.76,17.76,0,0,0,5.91-4.84h-5.78c-.13,0-.45,0-.45-.39s.32-.4.45-.4H283v-4.34h-5.69c-.12,0-.45,0-.45-.4a.38.38,0,0,1,.45-.41H283ZM279.67,117a11.57,11.57,0,0,1,.67,1.87c0,.3-.32.41-.49.41s-.29-.11-.46-.62-.48-1.22-.7-1.69-.17-.37-.17-.45a.48.48,0,0,1,.5-.41C279.22,116.1,279.33,116.18,279.67,117Zm8.71-.47a11.5,11.5,0,0,1-.8,2c-.33.65-.42.75-.64.75a.42.42,0,0,1-.43-.39,1.79,1.79,0,0,1,.18-.46,16.77,16.77,0,0,0,.8-2c0-.13.12-.39.34-.39C288.25,116.12,288.38,116.35,288.38,116.52Z"/><path d="M294.75,116.18a.41.41,0,0,1-.48-.44.37.37,0,0,1,.34-.4c.06,0,3.45,0,4.09-.06a15.47,15.47,0,0,0,.61-1.55c.12-.4.23-.61.54-.61,0,0,.52,0,.52.46,0,.23-.1.4-.66,1.67,2.67-.07,3-.07,3.7-.1s2.28-.11,2.95-.11a.41.41,0,0,1,.48.44.37.37,0,0,1-.34.42c-.5.06-6.59.2-7.21.22a20.62,20.62,0,0,1-1.56,2.57,4.53,4.53,0,0,1,2.81-1.07,2.1,2.1,0,0,1,2.24,2.1c.8-.28.94-.31,3.37-1a3.12,3.12,0,0,1,.8-.21c.44,0,.45.46.45.52,0,.34-.22.42-.95.59a23.64,23.64,0,0,0-3.56,1c.08,1,.1,1.81.1,2.18a8.82,8.82,0,0,1-.08,1.49c-.06.2-.3.24-.42.24-.47,0-.47-.32-.47-.51s0-.36,0-.41c0-.35,0-.53,0-1.17s0-1.07,0-1.49a11.78,11.78,0,0,0-3.43,2,1.94,1.94,0,0,0-.78,1.48c0,1.45,2.2,1.54,3.87,1.54.93,0,1.88-.06,2.55-.12.27,0,1.47-.16,1.66-.16s.5.07.5.44-.05.37-.44.45a33.11,33.11,0,0,1-4,.25c-1.42,0-5,0-5-2.35,0-2,2.59-3.37,5-4.37-.11-.7-.28-1.67-1.56-1.67-1.8,0-3.29,1.45-4.17,2.53-.23.28-1.18,1.53-1.42,1.76a.59.59,0,0,1-.37.19.5.5,0,0,1-.48-.52c0-.2.15-.36.45-.65a25.46,25.46,0,0,0,3.91-5.56h-.5Z"/><path d="M320.33,118.66c0,.33,0,1-.61,1.17a3.85,3.85,0,0,1-1.4.09c-.2,0-.54,0-.54-.46s.26-.38.42-.38.65,0,.76,0c.31,0,.55-.12.55-.59v-3.31h-2.59a6.6,6.6,0,0,1-1.55,4.28c-.12.15-.81.89-1.14.89a.46.46,0,0,1-.43-.46.44.44,0,0,1,.2-.34,5.11,5.11,0,0,0,2.07-4.37h-4.6a.37.37,0,0,1-.43-.4c0-.39.31-.39.43-.39h6.27V113.3a.4.4,0,0,1,.41-.47c.47,0,.47.33.47.47v1.09h6.3c.12,0,.44,0,.44.39s-.3.4-.44.4h-4.59Zm.63,2.4a2.4,2.4,0,0,1,.79.08.72.72,0,0,1,.45.69c0,1-2.4,2.52-3.15,3a18.61,18.61,0,0,0,5.79,1.67c.14,0,.42.05.42.39a.48.48,0,0,1-.48.51,20.16,20.16,0,0,1-6.54-2.13,24,24,0,0,1-6.72,2.09.45.45,0,0,1-.44-.49c0-.32.25-.37.44-.4a23.76,23.76,0,0,0,5.87-1.7,12.71,12.71,0,0,1-2.72-2.18,11,11,0,0,1-3,1.54.46.46,0,0,1-.44-.47c0-.23.17-.31.33-.37a12.2,12.2,0,0,0,4.76-3.25.49.49,0,0,1,.34-.17.4.4,0,0,1,.4.36c0,.19-.1.34-.62.87Zm-9.25-1.62a.48.48,0,0,1-.44-.47c0-.15,0-.18.55-.57a7.46,7.46,0,0,0,1.92-2.12.39.39,0,0,1,.37-.27.46.46,0,0,1,.47.41C314.58,117,312.32,119.44,311.71,119.44Zm4,2.36-.39.31a12.67,12.67,0,0,0,2.92,2.23c1.57-.87,3-2,3-2.36s-.2-.18-.36-.18Zm6.82-5.12a11.56,11.56,0,0,0,2.27,2.12.4.4,0,0,1,.22.35.48.48,0,0,1-.45.46,9.54,9.54,0,0,1-3.07-3,.46.46,0,0,1,.4-.44C322.05,116.15,322.08,116.18,322.49,116.68Z"/><path d="M334.9,121.31c1.17,0,1.28,1.33,1.28,1.56s-.15,1.36-.15,1.58c0,1.18.48,1.53,2.29,1.53.06,0,1,0,2-.07l.77,0c.29,0,.43.15.43.47s0,.42-.43.46a17.2,17.2,0,0,1-2.2.11c-1.92,0-3.81,0-3.81-2.21a9.63,9.63,0,0,1,.08-1.09,4.65,4.65,0,0,0,.06-.63.83.83,0,0,0-.84-.92c-.92,0-1.89.89-5.22,4.28-.18.17-.3.31-.57.31a.57.57,0,0,1-.5-.55c0-.2.08-.28.32-.5s4.24-3.87,5.18-4.65,1.9-1.54,4.22-3.24c.17-.12.25-.22.25-.25s-.17-.06-.23-.06c-.28,0-1.89.17-2.25.2-2.79.22-5.07.31-6,.31-.33,0-.66,0-.66-.45s.35-.44.53-.44c1.89,0,3.79-.07,5.68-.2.5,0,2.71-.22,3.17-.22.23,0,.92,0,.92.67,0,.41-.38.75-1,1.19-1.77,1.23-2.85,2.09-3.94,3A1.34,1.34,0,0,1,334.9,121.31Zm-3.32-8.2a1.39,1.39,0,0,1,.38.08,24.92,24.92,0,0,0,6.16.85c.29,0,.59,0,.59.44s-.41.47-.64.47a32.06,32.06,0,0,1-6.55-.91c-.09,0-.56-.17-.42-.62A.48.48,0,0,1,331.58,113.11Z"/><path d="M351.59,121.17a13.31,13.31,0,0,1,5.55,2.94c.5.46.63.67.63.88a.57.57,0,0,1-.57.55c-.18,0-.21,0-.76-.58a12.05,12.05,0,0,0-4.79-2.84c0,.33,0,1,0,1.41,0,1.64-.31,3.23-3.33,3.23-1.85,0-3.89-.75-3.89-2.94,0-2.73,3.18-3,4.38-3a9.88,9.88,0,0,1,1.8.14l-.13-7.24a.49.49,0,1,1,1,0l0,2.48c2,0,2.15,0,5-.14h.23a.43.43,0,0,1,.49.46c0,.44-.25.46-.72.47-3.17.11-3.23.11-5,.11Zm-2.81.53c-1.2,0-3.37.35-3.37,2.16,0,1.2,1.06,2,2.95,2,2.26,0,2.37-1.06,2.36-2.51s0-1,0-1.43A8.43,8.43,0,0,0,348.78,121.7Z"/><path d="M371.2,125.45a12.56,12.56,0,0,1-6.62,1.46c-.26,0-.7,0-.7-.51s.36-.44.58-.44c1.42,0,4.24,0,6.24-1.34a4.13,4.13,0,0,0,1.65-3.35c0-2.81-2.23-3.36-4.23-3.36a11.8,11.8,0,0,0-5.8,1.72c-.61.34-.76.42-.95.42a.51.51,0,0,1-.5-.53c0-.31.27-.44.83-.72a15.67,15.67,0,0,1,6.6-1.78,6.41,6.41,0,0,1,3.49.89,3.88,3.88,0,0,1,1.56,3.23A5,5,0,0,1,371.2,125.45Zm-7.71-12.25c.2,0,1,.25,1.19.28a37.14,37.14,0,0,0,6.25.75c.25,0,.56,0,.56.45s-.36.49-.64.49a47.32,47.32,0,0,1-7.33-1c-.25-.08-.61-.19-.48-.65A.43.43,0,0,1,363.49,113.2Z"/><path d="M381.38,124.37A2.43,2.43,0,1,1,379,122,2.43,2.43,0,0,1,381.38,124.37Zm-4,0a1.58,1.58,0,1,0,1.57-1.58A1.58,1.58,0,0,0,377.38,124.37Z"/><path class="cls-1" d="M20.11,27.2q1,0,2.07,0a2.67,2.67,0,0,0,2.06-.89,58.5,58.5,0,0,1,87.08,0,4.31,4.31,0,0,0,3.34,1.41c.7,0,1.4,0,2.11,0h.8l1,0a.58.58,0,0,0,.48-.93,64.2,64.2,0,0,0-102.58-.05.34.34,0,0,0,.3.55c.86-.08,1.72-.13,2.6-.14Z"/><path class="cls-2" d="M12.07,65.17C25,74,43.75,80.29,68,70.84a1.65,1.65,0,0,0,1-2.28C66,62,52.86,37.84,20.09,38.13,3,38.27-2.13,55.4,12.07,65.17Z"/><path class="cls-2" d="M126.09,65.71c-12.89,8.88-31.68,15.13-55.88,5.67a1.63,1.63,0,0,1-1-2.28c2.94-6.55,16-30.71,48.82-30.43C135.13,38.82,140.29,55.94,126.09,65.71Z"/><path class="cls-3" d="M120.78,55.41c-.28,0-26.71,2.63-45.32,14.5C92.8,75.37,109,73.14,123.67,63c5.39-3.71,7.85-8.92,6.42-13.59s-6.25-7.48-12.63-7.54c-21.54-.17-34,10.81-40.57,19.63C96.08,51.29,119.07,49.06,120.18,49a3.24,3.24,0,0,1,.6,6.45Z"/><path class="cls-3" d="M13.29,51.34a3.25,3.25,0,0,1,3.52-2.93c1.11.1,24.11,2.34,43.29,12.59-6.52-8.83-19-19.82-40.57-19.63-6.38.05-11.22,2.94-12.63,7.54s1,9.88,6.42,13.59C28,72.59,44.19,74.82,61.53,69.36c-18.64-11.89-45-14.47-45.32-14.49A3.24,3.24,0,0,1,13.29,51.34Z"/><path class="cls-3" d="M117.46,41.91c-21.54-.17-34,10.81-40.57,19.63C96.08,51.29,119.07,49.06,120.18,49a3.24,3.24,0,0,1,.6,6.45c-.28,0-26.71,2.63-45.32,14.5C92.8,75.37,109,73.14,123.67,63c5.39-3.71,7.85-8.92,6.42-13.59S123.84,42,117.46,41.91Z"/><path class="cls-3" d="M13.29,51.34a3.25,3.25,0,0,1,3.52-2.93c1.11.1,24.11,2.34,43.29,12.59-6.52-8.83-19-19.82-40.57-19.63-6.38.05-11.22,2.94-12.63,7.54s1,9.88,6.42,13.59C28,72.59,44.19,74.82,61.53,69.36c-18.64-11.88-45-14.47-45.32-14.49A3.24,3.24,0,0,1,13.29,51.34Z"/><path class="cls-1" d="M80.25,122.79c-1.24.27-2.5.5-3.77.68a3.4,3.4,0,0,1-3.89-3.37V75.81a65.78,65.78,0,0,0,20.53,3.5,60,60,0,0,0,34.23-10.93c7.8-5.37,11.23-13.35,8.94-20.83s-9.46-12-18.78-12.12c-28.3-.29-42.69,16.48-48.86,26.75-6-10.2-20.36-27.56-49.18-27.3C10.16,35,3,39.61.7,47S1.84,62.47,9.64,67.84A60.06,60.06,0,0,0,43.86,78.77a65.88,65.88,0,0,0,20.77-3.61v45.17a3.41,3.41,0,0,1-3.81,3.39c-1.31-.16-2.61-.36-3.89-.6a58.77,58.77,0,0,1-46.3-44.49,3,3,0,0,0-1.39-1.92c-.9-.54-2.77-1.77-4-2.63a.68.68,0,0,0-1,.66,64.35,64.35,0,0,0,60.48,55c1,0,2.08.08,3.14.08,1.62,0,3.22-.08,4.82-.2a64,64,0,0,0,58.68-54.05.28.28,0,0,0-.44-.28q-2.52,1.68-5.11,3.12a2.36,2.36,0,0,0-1.14,1.48A58.81,58.81,0,0,1,80.25,122.79ZM120.18,49c-1.11.1-24.1,2.33-43.29,12.58,6.54-8.82,19-19.8,40.57-19.63,6.38.06,11.22,3,12.63,7.54s-1,9.88-6.42,13.59C109,73.14,92.8,75.37,75.46,69.91c18.61-11.87,45-14.47,45.32-14.5a3.24,3.24,0,0,0-.6-6.45ZM13.32,62.5C7.93,58.79,5.47,53.58,6.9,48.91s6.25-7.49,12.63-7.54C41.1,41.18,53.58,52.17,60.1,61,40.92,50.75,17.92,48.51,16.81,48.41a3.24,3.24,0,0,0-.59,6.46c.27,0,26.67,2.61,45.31,14.49C44.19,74.82,28,72.59,13.32,62.5Z"/><path class="cls-1" d="M177.81,19.25h-6.53a1.07,1.07,0,0,0-1.06,1.2c0,.62.29,1.2,1.06,1.2h5.52c.29,0,.44.1.44.43v2.69a15,15,0,0,1-1.4,6.78c-1.2,2.16-3.26,3.51-7.11,3.51s-5.91-1.35-7.11-3.51c-1.54-2.84-1.64-7-1.64-11s.1-8.16,1.64-11C162.87,7.23,164.89,6,168.87,6a12.92,12.92,0,0,1,7.07,2.26,1.42,1.42,0,0,0,.91.34A1.38,1.38,0,0,0,178,7.38c0-.43-.44-.82-.87-1.16a13.7,13.7,0,0,0-8.27-2.59c-5.09,0-7.73,1.73-9.46,4.66-2,3.32-2.12,7.83-2.12,12.25s.19,8.94,2.12,12.26c1.63,2.79,4.37,4.66,9.32,4.66s7.79-1.82,9.42-4.61A16,16,0,0,0,180,25.3V21.46C180,20.35,179.78,19.25,177.81,19.25Z"/><path class="cls-4" d="M202.4,22.56c5.09-.72,7.59-4.27,7.59-9.32,0-6.39-4.08-9.42-9-9.42H187.45c-.62,0-1.15.24-1.15,1V36.26c0,1,.67,1.2,1.34,1.2s1.35-.24,1.35-1.2V23.09c0-.33.1-.43.43-.43h9.13c.39,0,.48,0,.77.43l8.22,13.84a1,1,0,0,0,.82.53c.62,0,1.54-.53,1.54-1.25a1.12,1.12,0,0,0-.2-.62L202.21,23a.44.44,0,0,1-.05-.19A.27.27,0,0,1,202.4,22.56Zm-1.92-2.3H189.42c-.33,0-.43-.1-.43-.44V6.66c0-.34.1-.44.43-.44H201c3.74,0,6.29,2.36,6.29,7S204.9,20.26,200.48,20.26Z"/><path class="cls-1" d="M236.11,34.87h-17c-.34,0-.43-.1-.43-.44V21.55c0-.33.09-.43.43-.43h14.42c.77,0,1-.58,1-1.2a1.06,1.06,0,0,0-1-1.2H219.1c-.34,0-.43-.1-.43-.43V6.66c0-.34.09-.44.43-.44h16.53c.77,0,1.06-.57,1.06-1.2a1.07,1.07,0,0,0-1.06-1.2H217.18c-.63,0-1.2.24-1.2,1V36.31c0,.72.57,1,1.2,1h18.93c.77,0,1.06-.58,1.06-1.2A1.07,1.07,0,0,0,236.11,34.87Z"/><path class="cls-1" d="M262.91,34.87h-17c-.33,0-.43-.1-.43-.44V21.55c0-.33.1-.43.43-.43h14.42c.77,0,1.06-.58,1.06-1.2a1.07,1.07,0,0,0-1.06-1.2H245.89c-.33,0-.43-.1-.43-.43V6.66c0-.34.1-.44.43-.44h16.53c.77,0,1.06-.57,1.06-1.2a1.07,1.07,0,0,0-1.06-1.2H244c-.62,0-1.2.24-1.2,1V36.31c0,.72.58,1,1.2,1h18.94c.76,0,1-.58,1-1.2A1.07,1.07,0,0,0,262.91,34.87Z"/><path class="cls-2" d="M302.39,5.76a10.43,10.43,0,0,1-10.23,1,.29.29,0,0,1-.18-.41A9.48,9.48,0,0,1,300.92.81C304.05.84,305,4,302.39,5.76Z"/><path class="cls-2" d="M281.2,5.76a10.45,10.45,0,0,0,10.24,1,.3.3,0,0,0,.18-.41A9.5,9.5,0,0,0,282.67.81C279.55.84,278.6,4,281.2,5.76Z"/><path class="cls-1" d="M304.7,2.36A3.6,3.6,0,0,0,301.06,0a10.44,10.44,0,0,0-9.25,4.9A10.41,10.41,0,0,0,282.57,0a3.59,3.59,0,0,0-3.64,2.36,3.63,3.63,0,0,0,1.73,4.05,11.48,11.48,0,0,0,6.58,2.1A12.73,12.73,0,0,0,290.61,8V31.6c0,.09,0,.38-.24.38s-.34-.19-.43-.33L273.55,5.41c-.91-1.44-1.3-1.78-2.31-1.78-1.29,0-1.68,1-1.68,2.35V36.26c0,1,.68,1.2,1.35,1.2s1.34-.24,1.34-1.2V9.49c0-.09,0-.38.24-.38s.34.19.44.33l16.38,26.24c.92,1.44,1.3,1.78,2.31,1.78,1.3,0,1.68-1,1.68-2.35V8.1a12.46,12.46,0,0,0,3.09.41A11.51,11.51,0,0,0,303,6.41,3.64,3.64,0,0,0,304.7,2.36ZM282.34,4c.05,0,4.9.48,8.1,2.7a10,10,0,0,1-9-1.36,2.35,2.35,0,0,1-1.21-2.53,2.29,2.29,0,0,1,2.36-1.4,9.09,9.09,0,0,1,7.91,4,21.5,21.5,0,0,0-8-2.51A.56.56,0,1,0,282.34,4ZM302.2,5.29a10.05,10.05,0,0,1-8.9,1.4V6.57a20.12,20.12,0,0,1,8-2.62.56.56,0,0,0-.11-1.11,21.5,21.5,0,0,0-8,2.51,9.08,9.08,0,0,1,7.9-4,2.31,2.31,0,0,1,2.37,1.4A2.35,2.35,0,0,1,302.2,5.29Z"/><path class="cls-4" d="M177.34,76.89c-.24,0-.48.2-.77.49a11.32,11.32,0,0,1-7.83,2.73c-2.79,0-5.43-.62-7.06-3.5C160.19,74,160,70.17,160,65.6c0-4.42.19-8.6,1.64-11,1.82-3,4.51-3.51,7.16-3.51a10.22,10.22,0,0,1,6.87,2.16c.29.19.53.43.82.43a1.38,1.38,0,0,0,1.29-1.25c0-.43-.53-.86-1.1-1.34-2.07-1.73-4.76-2.4-8.12-2.4s-6.88.86-9.13,4.66c-1.54,2.59-2.12,6.29-2.12,12.25s.58,9.71,2.12,12.26c2.4,3.94,6.05,4.66,9.13,4.66,5.67,0,8.31-2.36,9.56-3.46.38-.34.53-.58.53-.82A1.58,1.58,0,0,0,177.34,76.89Z"/><path class="cls-4" d="M205.43,48.69c-.67,0-1.34.24-1.34,1.2v14c0,.34-.15.43-.44.43h-17c-.34,0-.43-.09-.43-.43v-14c0-1-.67-1.2-1.35-1.2s-1.34.24-1.34,1.2V81.32c0,1,.67,1.2,1.34,1.2s1.35-.24,1.35-1.2V67.14c0-.34.09-.43.43-.43h17c.29,0,.44.09.44.43V81.32c0,1,.67,1.2,1.34,1.2s1.35-.24,1.35-1.2V49.89C206.78,48.93,206.11,48.69,205.43,48.69Z"/><path class="cls-4" d="M227.89,50.66c-.72-1.78-1.35-2-2.12-2s-1.39.19-2.11,2l-11.87,30a2.05,2.05,0,0,0-.15.67c0,.87,1.11,1.16,1.54,1.16s.72-.2,1-.77l2.79-7.07c.14-.38.34-.52.62-.52H234c.29,0,.48.14.62.52l2.84,7.07c.24.57.53.77,1,.77s1.54-.29,1.54-1.16a2.05,2.05,0,0,0-.15-.67ZM233,71.75H218.51c-.19,0-.28-.14-.28-.33a1.09,1.09,0,0,1,0-.24L225.34,53c.14-.34.24-.77.43-.77s.29.43.43.77l7.07,18.17a.9.9,0,0,1,0,.24A.29.29,0,0,1,233,71.75Z"/><path class="cls-4" d="M262.37,79.92H248.05c-.34,0-.44-.09-.44-.43V49.89c0-1-.67-1.2-1.34-1.2s-1.35.24-1.35,1.2V81.36c0,.72.58,1,1.2,1h16.25c.77,0,1.06-.57,1.06-1.2A1.07,1.07,0,0,0,262.37,79.92Z"/><path class="cls-4" d="M286.11,79.92H271.79c-.34,0-.43-.09-.43-.43V49.89c0-1-.67-1.2-1.35-1.2s-1.34.24-1.34,1.2V81.36c0,.72.57,1,1.2,1h16.24c.77,0,1.06-.57,1.06-1.2A1.07,1.07,0,0,0,286.11,79.92Z"/><path class="cls-4" d="M312.53,79.92h-17c-.34,0-.43-.09-.43-.43V66.61c0-.34.09-.43.43-.43h14.42c.77,0,1.05-.58,1.05-1.2a1.06,1.06,0,0,0-1.05-1.2H295.52c-.34,0-.43-.1-.43-.44V51.71c0-.33.09-.43.43-.43h16.53c.77,0,1.06-.58,1.06-1.2a1.07,1.07,0,0,0-1.06-1.2H293.6c-.63,0-1.2.24-1.2,1V81.36c0,.72.57,1,1.2,1h18.93c.77,0,1.06-.57,1.06-1.2A1.07,1.07,0,0,0,312.53,79.92Z"/><path class="cls-4" d="M342,48.69c-.68,0-1.35.24-1.35,1.2V76.65c0,.1,0,.39-.24.39s-.34-.19-.43-.34L323.6,50.46c-.91-1.44-1.3-1.77-2.31-1.77-1.29,0-1.68,1-1.68,2.35V81.32c0,1,.68,1.2,1.35,1.2s1.34-.24,1.34-1.2V54.55c0-.1,0-.39.24-.39s.34.2.44.34l16.38,26.24c.92,1.44,1.3,1.78,2.31,1.78,1.3,0,1.68-1,1.68-2.36V49.89C343.35,48.93,342.68,48.69,342,48.69Z"/><path class="cls-4" d="M370.2,64.3h-6.54a1.07,1.07,0,0,0-1.05,1.21c0,.62.28,1.2,1.05,1.2h5.53c.29,0,.43.09.43.43v2.69a15.1,15.1,0,0,1-1.39,6.78c-1.2,2.16-3.27,3.5-7.11,3.5s-5.91-1.34-7.12-3.5c-1.53-2.84-1.63-7-1.63-11s.1-8.17,1.63-11c1.25-2.31,3.27-3.51,7.26-3.51a12.87,12.87,0,0,1,7.06,2.26,1.51,1.51,0,0,0,.92.33,1.38,1.38,0,0,0,1.15-1.25c0-.43-.43-.81-.86-1.15a13.72,13.72,0,0,0-8.27-2.59c-5.09,0-7.74,1.72-9.47,4.66-2,3.31-2.11,7.83-2.11,12.25s.19,8.94,2.11,12.26c1.64,2.78,4.38,4.66,9.33,4.66s7.78-1.83,9.42-4.62a16,16,0,0,0,1.82-7.54V66.51C372.36,65.41,372.17,64.3,370.2,64.3Z"/><path class="cls-4" d="M399,79.92H382c-.34,0-.43-.09-.43-.43V66.61c0-.34.09-.43.43-.43h14.42c.77,0,1.05-.58,1.05-1.2a1.06,1.06,0,0,0-1.05-1.2H382c-.34,0-.43-.1-.43-.44V51.71c0-.33.09-.43.43-.43h16.53c.77,0,1.06-.58,1.06-1.2a1.07,1.07,0,0,0-1.06-1.2H380.1c-.63,0-1.21.24-1.21,1V81.36c0,.72.58,1,1.21,1H399c.77,0,1.06-.57,1.06-1.2A1.07,1.07,0,0,0,399,79.92Z"/><path class="cls-1" d="M174.79,125H160.38c-.15,0-.43,0-.43-.24a2.13,2.13,0,0,1,.09-.43,19.51,19.51,0,0,1,4.33-6.49l6.58-6.53c3.46-3.41,4.57-6.59,4.57-9.08,0-5.1-3.42-8.65-9-8.65a10.19,10.19,0,0,0-7.64,3c-.53.57-1,1-1,1.39a1.34,1.34,0,0,0,1.25,1.25,1,1,0,0,0,.72-.29c2.06-2,3.55-3.12,6.63-3.12,4.28,0,6.58,2.59,6.58,6.44,0,2-1.05,4.56-3.55,7.16L163,116.18c-3.89,4-5.62,7.35-5.62,9.95,0,.58.24,1.1,1.3,1.1h16.14a.92.92,0,0,0,1-1A1,1,0,0,0,174.79,125Z"/><path class="cls-1" d="M189.74,93.6c-8.75,0-10,7.64-10,16.91s1.25,16.92,10,16.92,10-7.64,10-16.92S198.49,93.6,189.74,93.6Zm7.59,17.25c0,6.63-.14,14.37-7.59,14.37s-7.59-7.74-7.59-14.37v-.68c0-6.63.14-14.36,7.59-14.36s7.59,7.73,7.59,14.36Z"/><path class="cls-5" d="M214.29,105.71a9.94,9.94,0,0,0-6.2,2.06.54.54,0,0,1-.34.15.31.31,0,0,1-.34-.34V96.43c0-.29.05-.43.43-.43h12.4a1.11,1.11,0,0,0,0-2.21H205.92a.91.91,0,0,0-.91,1v15c0,1,.62,1.44,1.63,1.44a2.83,2.83,0,0,0,1.93-1,7.88,7.88,0,0,1,5-2.31c5.91,0,7.11,3.8,7.11,8.66,0,6.53-3.5,8.6-7.11,8.6a9.35,9.35,0,0,1-7.06-3.32,1,1,0,0,0-.72-.29,1.34,1.34,0,0,0-1.25,1.25c0,.43.38.82,1,1.4a11.94,11.94,0,0,0,8.26,3.17c5.24,0,9.33-3.56,9.33-10.81C223.13,110.37,221,105.71,214.29,105.71Z"/><path class="cls-5" d="M237.13,93.6c-8.74,0-10,7.64-10,16.91s1.25,16.92,10,16.92,10-7.64,10-16.92S245.88,93.6,237.13,93.6Zm0,31.62c-7.45,0-7.59-7.74-7.59-14.37v-.68c0-6.63.14-14.36,7.59-14.36s7.6,7.73,7.6,14.36v.68C244.73,117.48,244.58,125.22,237.13,125.22Z"/></g></g></svg>